<?xml version="1.0" encoding="UTF-8"?>
<svg version="1.1" xmlns="http://www.w3.org/2000/svg" width="502" height="100">
<path d="M0 0 C0.80118362 -0.00495952 1.60236724 -0.00991903 2.42782915 -0.01502883 C5.12334624 -0.0280239 7.81837114 -0.01958794 10.51390076 -0.01129913 C12.46156193 -0.01618617 14.4092202 -0.0223751 16.35687351 -0.02975702 C21.7175099 -0.04620313 27.07799968 -0.04382913 32.43865252 -0.03838205 C38.21651052 -0.03571764 43.99432892 -0.05023247 49.77217102 -0.06247711 C61.09436807 -0.0835574 72.41651394 -0.08807051 83.73872828 -0.08628923 C92.93813497 -0.08498304 102.13752565 -0.08877837 111.33692932 -0.09621429 C113.98394426 -0.09831342 116.63095919 -0.10041102 119.27797413 -0.10250711 C120.59534018 -0.10355064 121.91270623 -0.10459417 123.26999247 -0.10566932 C141.11412803 -0.11944243 158.95825806 -0.12679373 176.80239868 -0.12234497 C177.50035255 -0.12217302 178.19830642 -0.12200106 178.91741041 -0.1218239 C182.45502774 -0.12093499 185.99264505 -0.11999017 189.53026235 -0.11902589 C190.23286219 -0.11883485 190.93546202 -0.11864382 191.65935276 -0.118447 C193.08018001 -0.11805991 194.50100724 -0.11766958 195.92183448 -0.11727602 C218.03614345 -0.11130432 240.1503478 -0.12675095 262.26463318 -0.15888214 C287.10199609 -0.19493913 311.93929211 -0.21425084 336.77668285 -0.20934343 C349.93083967 -0.20709538 363.08489278 -0.21239116 376.23902893 -0.23723602 C387.43591367 -0.25820358 398.63263782 -0.26188626 409.82952905 -0.24293643 C415.54559294 -0.23375101 421.26135702 -0.23272137 426.97739792 -0.25329208 C432.20571121 -0.27190006 437.43347701 -0.26761348 442.66176879 -0.24474627 C444.55738964 -0.2405347 446.45305164 -0.24484553 448.34862912 -0.25834221 C450.91797492 -0.27539636 453.485386 -0.2618923 456.05465698 -0.24050903 C457.1686871 -0.25892532 457.1686871 -0.25892532 458.30522287 -0.27771366 C462.1746408 -0.21005015 463.90412414 0.28779466 467.00059986 2.6833415 C469.69263167 6.26934837 469.56028198 9.1197543 469.02732849 13.38311005 C468.62487935 16.04866388 468.17522913 18.63297457 467.62205505 21.2644577 C467.4724231 22.00701309 467.32279114 22.74956848 467.16862488 23.51462555 C466.67661191 25.94390031 466.17294455 28.37056496 465.66795349 30.79717255 C465.31850072 32.49765995 464.96936444 34.19821242 464.62052917 35.8988266 C463.88954936 39.45204045 463.152333 43.00389296 462.41111755 46.55498505 C461.46420388 51.09579248 460.53669345 55.64032101 459.61427689 60.18615913 C458.8993522 63.69515881 458.17227876 67.20155929 457.44174957 70.70734024 C457.09472529 72.38174316 456.751881 74.05701825 456.41338348 75.73316574 C455.93824332 78.07845443 455.44633621 80.4196316 454.95018005 82.76055145 C454.81494934 83.4464183 454.67971863 84.13228516 454.54039001 84.83893585 C453.28955824 90.59277101 450.61275043 95.59515279 446.02732849 99.38311005 C442.40260431 100.59135144 439.08953843 100.5261799 435.31637001 100.52012444 C434.12058868 100.52410218 434.12058868 100.52410218 432.90065014 100.52816027 C430.20683143 100.53587117 427.51305816 100.53641313 424.81922913 100.53701019 C422.87742155 100.54102361 420.93561482 100.54546163 418.9938091 100.55028975 C413.64009956 100.56227411 408.28639904 100.56790799 402.9326787 100.5724709 C397.16570473 100.57841977 391.39874158 100.59003122 385.6317749 100.60076141 C371.69740169 100.62529909 357.76302488 100.63991315 343.82863671 100.65282148 C339.89541241 100.65653196 335.96218846 100.66050529 332.02896452 100.66457415 C307.6218705 100.68980561 283.21477659 100.71188218 258.8076725 100.72430229 C253.15270103 100.72722369 247.49772959 100.7301912 241.84275818 100.7332077 C241.14018972 100.73357861 240.43762127 100.73394952 239.71376286 100.73433167 C216.92437087 100.74649271 194.13505602 100.77744643 171.34570027 100.81912923 C147.26055894 100.86310188 123.17546366 100.88883286 99.09028184 100.89422286 C85.9573223 100.8976423 72.8244845 100.90946046 59.69156265 100.94232559 C48.51111165 100.97025838 37.33080732 100.98135519 26.15032412 100.97013013 C20.44236555 100.96492643 14.7347145 100.96794115 9.02680016 100.99259567 C3.80582435 101.01495954 -1.41462075 101.01444896 -6.63560505 100.9953918 C-8.52860038 100.99257368 -10.42163073 100.99828991 -12.3145694 101.01320474 C-14.88037712 101.03219198 -17.44426912 101.02060413 -20.01003075 101.0011425 C-20.75168484 101.01399172 -21.49333893 101.02684094 -22.25746739 101.04007953 C-26.12810187 100.9751969 -27.84606966 100.48158375 -30.93768275 98.07685912 C-33.89411209 94.16338355 -33.58315927 91.03444306 -32.97267151 86.38311005 C-32.00821218 80.51172626 -30.82918803 74.69511915 -29.61329651 68.8713913 C-29.26375708 67.17235102 -28.91462243 65.47322741 -28.56587219 63.77402496 C-27.83547297 60.22665964 -27.09823868 56.68079821 -26.35646057 53.13579559 C-25.40885948 48.60300183 -24.48152193 44.06632946 -23.5596199 39.52824879 C-22.84477241 36.02352138 -22.11769275 32.52141547 -21.38709259 29.01994133 C-21.04012536 27.34831912 -20.69728044 25.67583553 -20.3587265 24.00248909 C-19.88361718 21.66208549 -19.3917173 19.32581072 -18.89552307 16.9897995 C-18.76029236 16.30550369 -18.62506165 15.62120789 -18.48573303 14.91617584 C-17.29447151 9.44865019 -15.3318487 5.19828669 -10.83394337 1.7375493 C-7.183216 0.00940577 -3.95490964 -0.03435675 0 0 Z M172.1103363 23.03301239 C167.9027741 26.6923621 163.56766788 30.12246841 159.08982849 33.44561005 C158.47518738 33.91063934 157.86054626 34.37566864 157.22727966 34.85478973 C153.62317348 37.49973466 150.40489689 39.20016408 146.02732849 40.38311005 C145.78240662 39.77853973 145.53748474 39.17396942 145.28514099 38.5510788 C143.78735168 35.96948542 142.49891319 35.1296124 139.90232849 33.69561005 C138.8156488 33.07105927 138.8156488 33.07105927 137.70701599 32.4338913 C134.25237827 30.95207186 134.25237827 30.95207186 127.02732849 30.38311005 C128.34732849 25.10311005 129.66732849 19.82311005 131.02732849 14.38311005 C140.92732849 13.88811005 140.92732849 13.88811005 151.02732849 13.38311005 C150.72697693 14.79205536 150.42662537 16.20100067 150.11717224 17.6526413 C149.7326522 19.50021321 149.3485598 21.34787416 148.96482849 23.19561005 C148.66608826 24.58876434 148.66608826 24.58876434 148.36131287 26.01006317 C148.08577576 27.34907684 148.08577576 27.34907684 147.80467224 28.7151413 C147.54544983 29.94841156 147.54544983 29.94841156 147.2809906 31.20659637 C146.85082799 33.56014669 146.85082799 33.56014669 148.02732849 36.38311005 C148.46899353 36.01661346 148.91065857 35.65011688 149.3657074 35.27251434 C151.45972865 33.53670231 153.55567916 31.80324689 155.65232849 30.07061005 C156.41617859 29.43921112 157.18002869 28.80781219 157.96702576 28.15727997 C163.47823364 23.61806642 169.05284307 19.17249606 174.73484802 14.84868622 C177.37231034 12.81516569 179.15841303 11.18648324 181.02732849 8.38311005 C156.24549943 8.31735914 131.4641004 8.32076421 106.68223667 8.36814117 C100.12784161 8.37998366 93.57348156 8.38451476 87.01907635 8.3845129 C75.83974001 8.38471808 64.66081837 8.40654971 53.48162365 8.46499538 C48.06299807 8.49279358 42.64479111 8.51033289 37.22608948 8.50295258 C32.09906624 8.49643321 26.972933 8.51829662 21.84609604 8.56160164 C19.95537371 8.5726848 18.06456013 8.57358342 16.17383194 8.56355095 C13.57929275 8.55142059 10.98758433 8.57628443 8.39329529 8.61016083 C7.26819345 8.59182898 7.26819345 8.59182898 6.12036228 8.57312679 C0.91154686 8.69637166 -1.78357622 10.27809099 -5.60135555 13.78288078 C-7.83282952 16.38685394 -8.40609408 18.90006097 -9.08204651 22.22686005 C-9.30135834 23.24435333 -9.30135834 23.24435333 -9.52510071 24.28240204 C-9.84999962 25.80329286 -10.16268652 27.32682797 -10.46510315 28.85234833 C-11.01479752 31.59315247 -11.6100688 34.32148378 -12.21290588 37.0510788 C-13.3554362 42.24722678 -14.4588801 47.45068597 -15.54689026 52.65850067 C-16.22767676 55.90699346 -16.92038981 59.15280876 -17.61329651 62.39873505 C-18.05152764 64.48712342 -18.48905326 66.57566 -18.92579651 68.66436005 C-19.13198608 69.6228183 -19.33817566 70.58127655 -19.5506134 71.56877899 C-20.65700068 76.93688105 -21.55081608 81.9064227 -20.97267151 87.38311005 C-19.48069392 89.72242155 -19.48069392 89.72242155 -16.97267151 91.38311005 C-14.35414856 91.76781118 -12.15900796 91.90762563 -9.54426575 91.86412811 C-8.41820408 91.86925466 -8.41820408 91.86925466 -7.26939368 91.87448478 C-4.7524553 91.88107648 -2.23658203 91.85906733 0.28025818 91.83721161 C2.08378067 91.83608341 3.887305 91.83671646 5.69082642 91.83898163 C10.58935417 91.84013076 15.4874913 91.81658914 20.38592815 91.7886858 C25.50418818 91.7637054 30.62245685 91.7613328 35.74076843 91.75658417 C45.43407198 91.74414451 55.12719538 91.71130946 64.82041955 91.67118621 C75.85534344 91.62649934 86.89027587 91.60448921 97.9252677 91.58440447 C120.62605455 91.54257774 143.32668144 91.47220639 166.02732849 91.38311005 C164.1242629 87.30322385 161.41957516 84.17640383 158.46482849 80.82061005 C153.75378293 75.41722456 149.20285327 69.9322203 144.76951599 64.29717255 C144.19459412 63.66553192 143.61967224 63.0338913 143.02732849 62.38311005 C142.36732849 62.38311005 141.70732849 62.38311005 141.02732849 62.38311005 C140.35399856 65.46502708 139.6898399 68.54885084 139.02732849 71.63311005 C138.83654724 72.50580536 138.64576599 73.37850067 138.44920349 74.2776413 C138.26873474 75.12197723 138.08826599 75.96631317 137.90232849 76.83623505 C137.73475037 77.61128387 137.56717224 78.3863327 137.39451599 79.18486786 C136.91749232 81.66921679 136.91749232 81.66921679 137.02732849 85.38311005 C130.09732849 85.05311005 123.16732849 84.72311005 116.02732849 84.38311005 C118.99732849 70.52311005 121.96732849 56.66311005 125.02732849 42.38311005 C137.04302791 43.88507247 142.6368783 50.09430512 150.02732849 59.38311005 C152.39623979 62.70045839 154.65903793 66.08868595 156.92967224 69.47368622 C165.60012119 82.73535968 165.60012119 82.73535968 178.4084686 90.99679106 C180.87939898 91.36128835 183.18400003 91.5056931 185.67908669 91.50171375 C187.04454359 91.50317543 187.04454359 91.50317543 188.43758547 91.50466663 C189.92430304 91.49855366 189.92430304 91.49855366 191.4410553 91.4923172 C192.50085079 91.49191034 193.56064627 91.49150347 194.65255678 91.49108428 C198.20930831 91.48838349 201.76600084 91.47836948 205.32273865 91.46831512 C207.87029978 91.46471964 210.4178615 91.46151459 212.96542358 91.45867157 C220.61045388 91.44831752 228.25544468 91.42920766 235.90045267 91.40841082 C239.5003132 91.39882168 243.10017613 91.39025203 246.70003891 91.38155937 C258.66362839 91.35227133 270.62720718 91.32048447 282.59076881 91.28133869 C285.69266886 91.27121842 288.79456893 91.26110692 291.89646912 91.25102997 C292.6674239 91.24852309 293.43837869 91.24601622 294.23269574 91.24343338 C306.73983906 91.2032286 319.24695302 91.1800883 331.75414832 91.16405133 C344.59245156 91.1473207 357.43064867 91.11565499 370.26887929 91.06916732 C377.47834766 91.04343041 384.68770334 91.02428959 391.89722061 91.02179146 C398.67213175 91.01938756 405.44667148 90.99677837 412.22149849 90.9602356 C414.71323752 90.95008279 417.20501506 90.94680685 419.69677162 90.95076561 C423.08741368 90.95512181 426.47704722 90.93515407 429.86756897 90.90882111 C431.3609787 90.91943855 431.3609787 90.91943855 432.88455832 90.93027049 C433.78964743 90.9182062 434.69473653 90.90614192 435.62725258 90.89371204 C436.41018358 90.89165109 437.19311458 90.88959014 437.99977076 90.88746673 C440.19539974 90.53649266 440.19539974 90.53649266 441.74140108 88.5499956 C443.49578447 85.59372607 444.10275671 82.75273512 444.8525238 79.39897919 C445.01062531 78.70416946 445.16872681 78.00935974 445.33161926 77.29349518 C445.84968562 75.0038926 446.35302229 72.7113465 446.85545349 70.4182663 C447.21169707 68.82157222 447.56853775 67.22501126 447.9259491 65.62857819 C448.67202496 62.2852301 449.41081307 58.9403761 450.14451599 55.59429169 C451.08466537 51.30950139 452.04281796 47.02897805 453.00647354 42.74942112 C453.74638502 39.45417958 454.47668333 36.1568647 455.20410919 32.85884666 C455.55360976 31.27976539 455.90609044 29.70134061 456.26161957 28.12360573 C456.75743019 25.91663548 457.24021489 23.70719922 457.7197113 21.49663544 C457.99712158 20.24073105 458.27453186 18.98482666 458.56034851 17.69086456 C459.01817509 14.44794623 459.27063882 12.41469201 458.02732849 9.38311005 C453.30955027 6.63204786 448.16203309 7.10468409 442.87503052 7.12914276 C441.327381 7.12446279 441.327381 7.12446279 439.74846584 7.11968827 C436.28626778 7.11170203 432.82424469 7.11803451 429.36204529 7.12432098 C426.88170773 7.12161136 424.40137099 7.11805058 421.92103577 7.11370087 C415.87975069 7.10551861 409.83853443 7.10672936 403.79725202 7.11252615 C398.88563144 7.11704369 393.97402479 7.11765514 389.06240273 7.11547852 C388.36322356 7.11517205 387.6640444 7.11486558 386.943678 7.11454983 C385.52325051 7.11391037 384.10282303 7.11326194 382.68239556 7.11260465 C369.3610681 7.10690088 356.03976816 7.11345931 342.71844522 7.12420538 C331.29543222 7.13313506 319.87245989 7.13159376 308.44944763 7.12236786 C295.18029909 7.11165591 281.91117469 7.1074564 268.64202243 7.11359239 C267.22591548 7.11422947 265.80980852 7.11485821 264.39370155 7.11547852 C263.34862266 7.11594134 263.34862266 7.11594134 262.28243106 7.11641352 C257.37991851 7.11813812 252.4774213 7.11523029 247.57491112 7.11051941 C240.97001414 7.10431219 234.36518192 7.10875544 227.76028824 7.12030792 C225.33674688 7.12295117 222.91319905 7.12219514 220.48966026 7.11778259 C217.17987899 7.11231243 213.87034307 7.11917948 210.56057739 7.12914276 C209.6028808 7.12468132 208.64518422 7.12021987 207.65846652 7.11562324 C193.09849593 7.20055078 182.8198596 13.68906738 172.1103363 23.03301239 Z " fill="#0A9FE0" transform="translate(32.97267150878906,-0.38311004638671875)"/>
<path d="M0 0 C0.98492013 -0.00226556 1.96984025 -0.00453111 2.98460644 -0.00686532 C6.26401633 -0.01316361 9.54338444 -0.01237868 12.82279968 -0.0115509 C15.18213962 -0.01454482 17.54147906 -0.01794789 19.90081787 -0.02172852 C26.29291424 -0.03054469 32.68499722 -0.03290551 39.07709908 -0.0335443 C43.74019078 -0.03437511 48.40327951 -0.0372757 53.06637016 -0.04038078 C65.6035259 -0.04867461 78.14067455 -0.0524241 90.67783294 -0.05171105 C91.38857235 -0.05167109 92.09931177 -0.05163113 92.83158875 -0.05158997 C93.54319753 -0.05154909 94.25480632 -0.0515082 94.98797902 -0.05146609 C106.54040132 -0.05105895 118.09279114 -0.06064843 129.64520404 -0.07472833 C141.51516086 -0.08908102 153.38510181 -0.09599927 165.25506753 -0.09513456 C171.91620646 -0.09480242 178.5773132 -0.09775156 185.23844337 -0.10831261 C191.49537254 -0.1179631 197.75222934 -0.11809381 204.009161 -0.11079597 C206.30860881 -0.10974663 208.60806106 -0.11213362 210.90750122 -0.11815643 C214.03892494 -0.12582932 217.17009573 -0.12126297 220.30151367 -0.11352539 C221.21755082 -0.11866895 222.13358797 -0.12381252 223.07738382 -0.12911195 C223.91581266 -0.12451315 224.7542415 -0.11991435 225.61807728 -0.1151762 C226.70207553 -0.11550225 226.70207553 -0.11550225 227.80797273 -0.11583489 C230.15576604 0.17344526 231.78754261 0.97398012 233.83329773 2.13371277 C233.95303638 6.85954112 233.60226886 11.05247975 232.57987976 15.66398621 C232.30604462 16.91508179 232.03220947 18.16617737 231.75007629 19.45518494 C231.44743424 20.80123053 231.14443713 22.14719634 230.84111023 23.49308777 C230.53155407 24.88826893 230.22246947 26.28355479 229.91383362 27.67893982 C229.26787449 30.59154151 228.61671461 33.50291621 227.9617157 36.41349792 C227.12285589 40.14275022 226.2963945 43.87462063 225.4736805 47.60746384 C224.83838173 50.48409928 224.19694513 53.35933862 223.55360031 56.23418427 C223.24639607 57.61009258 222.94101552 58.9864094 222.63750076 60.36313629 C222.21302482 62.28380836 221.77947105 64.20246741 221.34550476 66.12101746 C220.97910385 67.7581369 220.97910385 67.7581369 220.6053009 69.42832947 C219.83329773 72.13371277 219.83329773 72.13371277 217.83329773 75.13371277 C215.96429998 75.51617229 215.96429998 75.51617229 213.63994312 75.52685356 C212.3132716 75.54381352 212.3132716 75.54381352 210.95979863 75.5611161 C209.98209829 75.55831488 209.00439794 75.55551367 207.99707031 75.55262756 C206.96307812 75.56139109 205.92908594 75.57015461 204.86376065 75.5791837 C201.37607804 75.60499546 197.88869535 75.60926601 194.40092468 75.61369324 C191.90954881 75.62761142 189.41817977 75.64280338 186.92681885 75.65917969 C180.84737477 75.69551416 174.76802779 75.71773515 168.6885067 75.73313217 C163.74626884 75.74593716 158.80408481 75.76455043 153.86188316 75.78734207 C153.15923345 75.79057713 152.45658373 75.79381219 151.7326416 75.79714528 C150.30528673 75.80374171 148.87793192 75.81035135 147.45057716 75.81697406 C134.05160325 75.87845064 120.65261794 75.92152636 107.25355681 75.95837833 C95.7596228 75.99042027 84.26584266 76.03821548 72.77201843 76.09757996 C59.42969239 76.1664846 46.08738229 76.22553255 32.74494714 76.2689563 C31.32122842 76.27361727 29.89750975 76.27829114 28.47379112 76.28297806 C27.42302755 76.28642998 27.42302755 76.28642998 26.35103643 76.28995164 C21.41800266 76.30683682 16.48503175 76.33075479 11.55204201 76.3574028 C4.90617681 76.39309502 -1.73960457 76.41269527 -8.38556862 76.42151451 C-10.8256723 76.42717346 -13.26577026 76.43799007 -15.70582581 76.45432854 C-19.03587941 76.47578726 -22.36544623 76.4786063 -25.69555664 76.47669983 C-26.66210338 76.48728294 -27.62865012 76.49786606 -28.62448615 76.50876987 C-34.84388574 76.47869561 -39.84969762 75.79275576 -44.8639679 71.77311707 C-49.20128588 66.3821251 -52.92728017 60.59495414 -56.56513977 54.71696472 C-57.67710384 52.92949233 -58.81208553 51.1580181 -59.94795227 49.38566589 C-60.65773983 48.24659682 -61.36612635 47.10665324 -62.07295227 45.96574402 C-62.71554993 44.94198669 -63.35814758 43.91822937 -64.0202179 42.8634491 C-65.16670227 40.13371277 -65.16670227 40.13371277 -64.55757141 37.96525574 C-63.14759193 36.10854764 -61.73377367 34.56289131 -60.00654602 32.99699402 C-59.38247864 32.42424744 -58.75841125 31.85150085 -58.11543274 31.26139832 C-57.45172668 30.66238708 -56.78802063 30.06337585 -56.10420227 29.44621277 C-51.79180458 25.50634672 -47.55647058 21.56861251 -43.54170227 17.32121277 C-30.84077992 4.45190698 -17.69795606 -0.03028797 0 0 Z M-2.16670227 6.13371277 C-4.88202447 17.00151314 -6.85847316 27.98571954 -8.81098938 39.01091003 C-9.35755601 42.09010676 -9.91324939 45.16756913 -10.46943665 48.24504089 C-10.82089958 50.21694789 -11.17183026 52.18894984 -11.52217102 54.16105652 C-11.68775009 55.07362717 -11.85332916 55.98619781 -12.02392578 56.92642212 C-12.80604401 61.38848706 -13.36355556 65.58177269 -13.16670227 70.13371277 C-8.38361418 70.2086587 -3.60087843 70.26268486 1.18266296 70.29850769 C2.80511948 70.31346343 4.4275365 70.33383554 6.04985046 70.36003113 C19.75847618 70.57561544 32.88678617 69.8897611 43.77079773 60.45402527 C52.41594471 51.47350621 55.12378528 39.91514345 55.15019226 27.80607605 C55.00499273 20.47618871 53.11424472 16.52075032 48.14579773 11.32121277 C41.35758167 6.83842858 34.65877903 5.68256369 26.64189148 5.84074402 C25.8111763 5.84498886 24.98046112 5.8492337 24.12457275 5.85360718 C21.50629891 5.87021963 18.88883358 5.90783647 16.27079773 5.94621277 C14.48109541 5.96128224 12.69138086 5.97496665 10.9016571 5.98722839 C6.54523219 6.02006557 2.18940138 6.07172341 -2.16670227 6.13371277 Z M67.83329773 6.13371277 C65.01012661 19.75693448 62.36580746 33.40734246 59.92686462 47.10423279 C59.65694818 48.61942433 59.38559417 50.13436052 59.11277771 51.64903259 C58.72721707 53.79417433 58.34768359 55.94029394 57.97001648 58.08683777 C57.64070129 59.94550476 57.64070129 59.94550476 57.30473328 61.84172058 C56.71516397 65.40436738 56.71516397 65.40436738 56.83329773 70.13371277 C63.43329773 70.13371277 70.03329773 70.13371277 76.83329773 70.13371277 C78.210757 65.31260533 79.25235743 61.08737055 79.95829773 56.19621277 C80.12587585 55.05281433 80.29345398 53.90941589 80.46611023 52.73136902 C80.5872821 51.87414246 80.70845398 51.01691589 80.83329773 50.13371277 C81.8000946 50.15691589 82.76689148 50.18011902 83.76298523 50.20402527 C94.92064795 50.35868594 106.73448045 50.45986966 115.55595398 42.59855652 C121.8183348 35.84380177 123.42989498 29.01652818 123.18876648 19.91105652 C122.58043708 15.15806528 120.35801056 12.60584929 117.02079773 9.38371277 C111.05793106 5.97636038 105.08449839 5.85613699 98.39970398 5.93840027 C97.52176682 5.94123016 96.64382965 5.94406006 95.73928833 5.94697571 C92.95798128 5.95809679 90.17700609 5.98318605 87.39579773 6.00871277 C85.50062012 6.01875302 83.60543741 6.02787703 81.71025085 6.03605652 C77.08447356 6.05800962 72.45894175 6.09248317 67.83329773 6.13371277 Z M-30.60420227 14.07121277 C-34.54069825 17.76075017 -38.52137691 21.31297567 -42.72920227 24.69621277 C-48.42809295 29.28190906 -53.80264261 34.16391668 -59.16670227 39.13371277 C-57.51850654 44.37038528 -54.2647108 48.40108528 -51.04170227 52.75871277 C-49.86585729 54.36283272 -48.69007596 55.96699933 -47.51435852 57.57121277 C-46.9421759 58.34851746 -46.36999329 59.12582214 -45.7804718 59.92668152 C-44.36812273 61.85824516 -42.97716262 63.80179027 -41.60029602 65.75871277 C-40.90033508 66.74871277 -40.20037415 67.73871277 -39.47920227 68.75871277 C-38.87721008 69.61722839 -38.2752179 70.47574402 -37.65498352 71.36027527 C-37.16385071 71.94550964 -36.6727179 72.53074402 -36.16670227 73.13371277 C-35.50670227 73.13371277 -34.84670227 73.13371277 -34.16670227 73.13371277 C-32.72714269 65.52842188 -31.292486 57.92222389 -29.86403656 50.31483936 C-29.2005579 46.78224516 -28.53541112 43.24998232 -27.8664093 39.71842957 C-27.22053744 36.30863702 -26.5791035 32.89803661 -25.94070435 29.48683739 C-25.57814012 27.55587376 -25.21101595 25.62576812 -24.84382629 23.69567871 C-24.62359802 22.514832 -24.40336975 21.33398529 -24.1764679 20.11735535 C-23.98105408 19.08032974 -23.78564026 18.04330414 -23.58430481 16.97485352 C-23.19265353 14.31027104 -23.08691432 11.82155982 -23.16670227 9.13371277 C-26.47136934 9.13371277 -28.32313327 11.89332389 -30.60420227 14.07121277 Z M168.83329773 33.13371277 C163.34735649 41.23265844 161.91268152 48.37773818 162.83329773 58.13371277 C164.42956173 63.01793359 167.54429014 66.3764936 171.83329773 69.13371277 C180.1392244 72.48756362 190.94021736 72.62597742 199.39579773 69.50871277 C207.46079888 65.62506288 212.23381683 60.31435119 215.83329773 52.13371277 C217.87433149 45.88060933 218.32253499 37.09901883 215.33329773 31.13371277 C211.48073119 26.51063293 206.83192874 23.22337235 200.83329773 22.13371277 C188.31135047 21.08592294 177.30316953 23.30021082 168.83329773 33.13371277 Z M150.12236023 26.89152527 C148.64791723 28.60132537 147.23553978 30.36421685 145.83329773 32.13371277 C146.16329773 29.16371277 146.49329773 26.19371277 146.83329773 23.13371277 C141.22329773 23.13371277 135.61329773 23.13371277 129.83329773 23.13371277 C128.6906053 29.34444368 127.55136136 35.55579339 126.41532898 41.76774597 C126.02825974 43.88152722 125.64024351 45.99513528 125.25126648 48.10856628 C124.69279265 51.14384303 124.13771121 54.17972335 123.58329773 57.21574402 C123.32081238 58.63618767 123.32081238 58.63618767 123.05302429 60.08532715 C122.81277527 61.40635689 122.81277527 61.40635689 122.56767273 62.7540741 C122.42555359 63.52906754 122.28343445 64.30406097 122.13700867 65.10253906 C121.75935731 67.28592297 121.75935731 67.28592297 121.83329773 70.13371277 C127.77329773 70.13371277 133.71329773 70.13371277 139.83329773 70.13371277 C141.39324651 63.89391764 142.73755575 57.70992976 143.95439148 51.40324402 C145.04088873 47.36147423 146.16970473 44.25423202 149.72392273 41.86027527 C152.04555078 41.06060338 154.13891268 40.7243938 156.58329773 40.50871277 C157.38251648 40.43394714 158.18173523 40.35918152 159.00517273 40.28215027 C159.60845398 40.23316589 160.21173523 40.18418152 160.83329773 40.13371277 C161.33838981 37.88485039 161.83718952 35.63457408 162.33329773 33.38371277 C162.61173523 32.13074402 162.89017273 30.87777527 163.17704773 29.58683777 C163.95776676 26.06459032 163.95776676 26.06459032 163.83329773 22.13371277 C158.15023424 21.72777966 154.18512263 22.71745431 150.12236023 26.89152527 Z " fill="#049EE0" transform="translate(252.1667022705078,10.866287231445313)"/>
<path d="M0 0 C1.29683212 0.00141495 2.59366425 0.0028299 3.92979431 0.00428772 C7.34754426 0.00807308 10.7652505 0.01786848 14.1829834 0.0289917 C17.6825298 0.03929228 21.18208338 0.04380371 24.68164062 0.04882812 C31.52605942 0.05949506 38.37044948 0.07652255 45.21484375 0.09765625 C45.21484375 0.75765625 45.21484375 1.41765625 45.21484375 2.09765625 C42.57484375 2.42765625 39.93484375 2.75765625 37.21484375 3.09765625 C36.88484375 4.08765625 36.55484375 5.07765625 36.21484375 6.09765625 C39.18484375 6.59265625 39.18484375 6.59265625 42.21484375 7.09765625 C42.21484375 6.43765625 42.21484375 5.77765625 42.21484375 5.09765625 C43.53484375 4.43765625 44.85484375 3.77765625 46.21484375 3.09765625 C46.21484375 5.76432292 46.21484375 8.43098958 46.21484375 11.09765625 C47.65234566 12.78564452 47.65234566 12.78564452 49.21484375 14.09765625 C48.88484375 15.08765625 48.55484375 16.07765625 48.21484375 17.09765625 C47.61671875 16.19015625 47.01859375 15.28265625 46.40234375 14.34765625 C42.20178158 9.45753531 36.38868237 7.57409608 30.07070923 6.85290527 C24.22952127 6.43284332 18.38109765 6.39452552 12.52734375 6.34765625 C10.74671641 6.31944637 8.96611551 6.28951208 7.18554688 6.2578125 C2.86202732 6.18454688 -1.46118013 6.13461059 -5.78515625 6.09765625 C-5.94072998 7.04157227 -6.09630371 7.98548828 -6.2565918 8.95800781 C-9.62338069 29.36480136 -13.08218805 49.74872762 -16.78515625 70.09765625 C-12.00154971 70.02808351 -7.2187603 69.93979522 -2.43579102 69.83520508 C-0.81348854 69.80224126 0.80892078 69.77412353 2.43139648 69.7512207 C17.29761247 69.5357683 28.63859548 67.48182177 41.21484375 59.09765625 C40.21484375 61.09765625 39.21484375 63.09765625 38.21484375 65.09765625 C38.87484375 65.42765625 39.53484375 65.75765625 40.21484375 66.09765625 C37.54093135 66.98896038 34.97760552 67.57497159 32.21484375 68.09765625 C31.05672987 71.04495162 31.05672987 71.04495162 31.21484375 74.09765625 C59.26484375 73.76765625 87.31484375 73.43765625 116.21484375 73.09765625 C117.69316635 70.14101106 117.27517158 67.35535888 117.21484375 64.09765625 C117.87484375 63.76765625 118.53484375 63.43765625 119.21484375 63.09765625 C118.88484375 65.40765625 118.55484375 67.71765625 118.21484375 70.09765625 C124.15484375 70.09765625 130.09484375 70.09765625 136.21484375 70.09765625 C136.54484375 69.43765625 136.87484375 68.77765625 137.21484375 68.09765625 C137.02921875 68.73703125 136.84359375 69.37640625 136.65234375 70.03515625 C136.50796875 70.71578125 136.36359375 71.39640625 136.21484375 72.09765625 C137.24012259 73.3454721 137.24012259 73.3454721 139.42311096 73.21791077 C140.39795944 73.21569016 141.37280792 73.21346954 142.37719727 73.21118164 C144.02879601 73.21106834 144.02879601 73.21106834 145.71376038 73.21095276 C147.51060524 73.20321083 147.51060524 73.20321083 149.34375 73.1953125 C150.56311752 73.19389755 151.78248505 73.1924826 153.0388031 73.19102478 C156.95167445 73.18540592 160.86448956 73.17285021 164.77734375 73.16015625 C167.42252522 73.15514368 170.06770758 73.15058035 172.71289062 73.14648438 C179.21356349 73.13543036 185.71419407 73.11815308 192.21484375 73.09765625 C185.28484375 72.76765625 178.35484375 72.43765625 171.21484375 72.09765625 C171.21484375 71.43765625 171.21484375 70.77765625 171.21484375 70.09765625 C172.47039062 70.1440625 173.7259375 70.19046875 175.01953125 70.23828125 C188.0500916 70.57797125 196.74281174 69.29315956 207.21484375 61.09765625 C205.93762849 66.09040682 204.04153418 68.67377533 200.21484375 72.09765625 C202.9166743 73.44857153 205.33292581 73.43623683 208.33984375 73.66015625 C209.98339844 73.78583984 209.98339844 73.78583984 211.66015625 73.9140625 C212.50320313 73.97464844 213.34625 74.03523438 214.21484375 74.09765625 C214.21484375 74.42765625 214.21484375 74.75765625 214.21484375 75.09765625 C181.97597822 75.29365199 149.73707275 75.47415355 117.4980044 75.63303451 C113.6916215 75.65180684 109.88523926 75.67071124 106.07885742 75.68969727 C104.94218745 75.69536358 104.94218745 75.69536358 103.78255446 75.70114437 C91.51376012 75.76261944 79.24505086 75.83479189 66.97633969 75.91092005 C54.3868846 75.98880023 41.79740673 76.05517914 29.20783383 76.11088878 C21.43980337 76.14562508 13.67192964 76.18932434 5.90401704 76.24450109 C-0.05309561 76.28585429 -6.01020898 76.31120299 -11.96743584 76.33057785 C-14.41077354 76.34103091 -16.85409533 76.35668191 -19.29736328 76.37789726 C-22.63187411 76.40607653 -25.96593781 76.41559634 -29.30055237 76.42045593 C-30.75241883 76.43940014 -30.75241883 76.43940014 -32.23361593 76.45872706 C-38.46172171 76.44147316 -43.46076414 75.76262133 -48.48242188 71.73706055 C-52.81973986 66.34606859 -56.54573415 60.55889762 -60.18359375 54.6809082 C-61.29555782 52.89343581 -62.43053951 51.12196158 -63.56640625 49.34960938 C-64.27619381 48.2105403 -64.98458033 47.07059672 -65.69140625 45.9296875 C-66.33400391 44.90593018 -66.97660156 43.88217285 -67.63867188 42.82739258 C-68.78515625 40.09765625 -68.78515625 40.09765625 -68.17602539 37.92919922 C-66.76604591 36.07249112 -65.35222765 34.52683479 -63.625 32.9609375 C-63.00093262 32.38819092 -62.37686523 31.81544434 -61.73388672 31.2253418 C-61.07018066 30.62633057 -60.40647461 30.02731934 -59.72265625 29.41015625 C-55.41025856 25.4702902 -51.17492456 21.532556 -47.16015625 17.28515625 C-33.31165259 3.25305501 -19.17285744 -0.07954061 0 0 Z M-34.22265625 14.03515625 C-38.15915223 17.72469365 -42.13983089 21.27691915 -46.34765625 24.66015625 C-52.04654693 29.24585254 -57.42109659 34.12786016 -62.78515625 39.09765625 C-61.13696052 44.33432876 -57.88316478 48.36502876 -54.66015625 52.72265625 C-53.48431127 54.32677621 -52.30852994 55.93094282 -51.1328125 57.53515625 C-50.56062988 58.31246094 -49.98844727 59.08976562 -49.39892578 59.890625 C-47.98657671 61.82218864 -46.5956166 63.76573376 -45.21875 65.72265625 C-44.51878906 66.71265625 -43.81882813 67.70265625 -43.09765625 68.72265625 C-42.49566406 69.58117187 -41.89367187 70.4396875 -41.2734375 71.32421875 C-40.78230469 71.90945312 -40.29117188 72.4946875 -39.78515625 73.09765625 C-39.12515625 73.09765625 -38.46515625 73.09765625 -37.78515625 73.09765625 C-36.34559667 65.49236537 -34.91093998 57.88616737 -33.48249054 50.27878284 C-32.81901188 46.74618864 -32.1538651 43.2139258 -31.48486328 39.68237305 C-30.83899142 36.2725805 -30.19755748 32.8619801 -29.55915833 29.45078087 C-29.1965941 27.51981724 -28.82946993 25.5897116 -28.46228027 23.65962219 C-28.242052 22.47877548 -28.02182373 21.29792877 -27.79492188 20.08129883 C-27.59950806 19.04427322 -27.40409424 18.00724762 -27.20275879 16.938797 C-26.81110751 14.27421452 -26.7053683 11.7855033 -26.78515625 9.09765625 C-30.08982332 9.09765625 -31.94158725 11.85726737 -34.22265625 14.03515625 Z " fill="#059EDF" transform="translate(255.78515625,10.90234375)"/>
<path d="M0 0 C17.16 0 34.32 0 52 0 C54.55168789 5.10337579 51.11898917 11.40505417 50 17 C38.78 17 27.56 17 16 17 C15.67 20.63 15.34 24.26 15 28 C25.56 28 36.12 28 47 28 C49.55168789 33.10337579 46.11898917 39.40505417 45 45 C27.18 45 9.36 45 -9 45 C-6.75 30.375 -6.75 30.375 -5.2734375 23.73046875 C-4.99419434 22.46356201 -4.71495117 21.19665527 -4.42724609 19.89135742 C-4.08000488 18.33908447 -3.73276367 16.78681152 -3.375 15.1875 C-2.26125 10.175625 -1.1475 5.16375 0 0 Z " fill="#069DDC" transform="translate(94,40)"/>
<path d="M0 0 C101.64 0 203.28 0 308 0 C308 0.33 308 0.66 308 1 C306.70310305 1.00423194 305.40620609 1.00846388 304.07000923 1.01282406 C273.31071838 1.11341651 242.55144979 1.21910977 211.79219855 1.33111694 C208.00941505 1.34488715 204.2266314 1.35861415 200.44384766 1.37231445 C199.3141822 1.37640691 199.3141822 1.37640691 198.16169523 1.38058204 C185.95425293 1.424703 173.74680134 1.46532079 161.53934278 1.50465261 C149.0210415 1.54506361 136.5027575 1.5892191 123.98448169 1.63687855 C116.25492212 1.66618759 108.52536389 1.69254704 100.79578184 1.71517897 C94.87696329 1.73282128 88.95817213 1.75566365 83.03937912 1.78049088 C80.60526376 1.78987593 78.17114113 1.79754594 75.73701477 1.80341911 C72.42710772 1.81165563 69.11728155 1.82592532 65.80740356 1.84178162 C64.34536363 1.84324878 64.34536363 1.84324878 62.85378754 1.84474558 C61.97198976 1.85022002 61.09019198 1.85569446 60.18167305 1.8613348 C59.03453793 1.86532186 59.03453793 1.86532186 57.86422837 1.86938947 C55.90681729 1.88675452 55.90681729 1.88675452 54 3 C54 3.66 54 4.32 54 5 C52.02 5 50.04 5 48 5 C47.67 5.99 47.34 6.98 47 8 C45.16469005 8.41554188 43.32906473 8.82972315 41.4921875 9.23828125 C32.83043328 11.88568262 25.79659662 17.79936425 19.08300781 23.64770508 C14.86523783 27.31153121 10.53421649 30.7754906 6.0625 34.125 C5.44785889 34.5984082 4.83321777 35.07181641 4.19995117 35.55957031 C0.55568525 38.2538714 -2.31088136 39.89821016 -7 40 C-8.68997323 38.35697047 -10.35216394 36.68528688 -12 35 C-16.47609475 32.77290555 -21.13066742 31.12455718 -26 30 C-25.52555245 27.35323911 -25.04568672 24.70766636 -24.5625 22.0625 C-24.42779297 21.30775391 -24.29308594 20.55300781 -24.15429688 19.77539062 C-23.11328125 14.11328125 -23.11328125 14.11328125 -22 13 C-20.5112814 12.91330568 -19.018555 12.89296506 -17.52734375 12.90234375 C-16.62822266 12.90556641 -15.72910156 12.90878906 -14.80273438 12.91210938 C-13.85720703 12.92048828 -12.91167969 12.92886719 -11.9375 12.9375 C-10.98810547 12.94201172 -10.03871094 12.94652344 -9.06054688 12.95117188 C-6.70696935 12.9629989 -4.35351523 12.97947975 -2 13 C-2.57264163 20.44352195 -3.56553939 27.67368796 -5 35 C-4.55833496 34.63350342 -4.11666992 34.26700684 -3.66162109 33.8894043 C5.28058195 26.47687989 14.27138025 19.14591989 23.4375 12.01171875 C25.80145757 10.23839123 25.80145757 10.23839123 27 9 C4.23 8.67 -18.54 8.34 -42 8 C-42 7.67 -42 7.34 -42 7 C-28.14 7 -14.28 7 0 7 C0 4.69 0 2.38 0 0 Z " fill="#1EA9E7" transform="translate(186,0)"/>
<path d="M0 0 C9.48654137 0.16643055 14.74220003 5.48388604 21.15112305 11.94824219 C24.45902647 15.61912827 27.12768868 19.71565255 29.875 23.8125 C39.47435997 39.1078186 39.47435997 39.1078186 53.8125 48.75 C54.534375 48.8325 55.25625 48.915 56 49 C56 49.33 56 49.66 56 50 C54.02 50.33 52.04 50.66 50 51 C50 51.66 50 52.32 50 53 C48.68 53 47.36 53 46 53 C45.505 50.03 45.505 50.03 45 47 C43.68 47.66 42.36 48.32 41 49 C33.60495545 41.0182922 26.52801128 32.85490103 19.8671875 24.2421875 C18.19648152 21.93110206 18.19648152 21.93110206 16 21 C15.96261719 21.57105469 15.92523438 22.14210938 15.88671875 22.73046875 C15.29518678 30.02602967 13.73905576 36.89255472 12 44 C4.74 44 -2.52 44 -10 44 C-8.74004946 37.89369425 -7.47785878 31.78794608 -6.2097168 25.68334961 C-5.77866865 23.60485528 -5.34897825 21.52607891 -4.9206543 19.44702148 C-4.30610976 16.46523718 -3.68675002 13.4844887 -3.06640625 10.50390625 C-2.87470352 9.56849503 -2.68300079 8.6330838 -2.48548889 7.66932678 C-2.21532204 6.37810158 -2.21532204 6.37810158 -1.93969727 5.06079102 C-1.78203384 4.29912125 -1.62437042 3.53745148 -1.46192932 2.75270081 C-1 1 -1 1 0 0 Z " fill="#069EDE" transform="translate(158,41)"/>
<path d="M0 0 C0 0.66 0 1.32 0 2 C0.66 2.66 1.32 3.32 2 4 C0.57764246 5.2191636 -0.84471786 6.43832395 -2.26708984 7.6574707 C-3.52006536 8.73147323 -4.77299401 9.80553044 -6.02587891 10.87963867 C-9.27138423 13.66190496 -12.51757021 16.44336647 -15.765625 19.22265625 C-21.87234028 24.44950736 -27.9714253 29.68287201 -34 35 C-32.35028761 40.26436885 -29.05393392 44.312177 -25.8125 48.6875 C-24.63475282 50.2937843 -23.45766469 51.90055205 -22.28125 53.5078125 C-21.71535156 54.27899414 -21.14945313 55.05017578 -20.56640625 55.84472656 C-18.05890004 59.29489253 -15.65622656 62.81293028 -13.26953125 66.34765625 C-12.08356787 68.14021093 -12.08356787 68.14021093 -10 69 C-7.93776648 69.12048151 -5.87171371 69.17740927 -3.80615234 69.20532227 C-1.85435562 69.2352401 -1.85435562 69.2352401 0.13687134 69.26576233 C1.5626005 69.28274673 2.98833093 69.29962553 4.4140625 69.31640625 C5.86852613 69.33697521 7.32298377 69.35797166 8.7774353 69.37937927 C12.60786088 69.43460604 16.43834045 69.4840126 20.26885986 69.53222656 C24.1766847 69.5824372 28.084431 69.63812554 31.9921875 69.69335938 C39.66139185 69.80094833 47.33066145 69.90239162 55 70 C54.67 69.01 54.34 68.02 54 67 C51.36 66.67 48.72 66.34 46 66 C46 65.67 46 65.34 46 65 C46.68964844 64.84144531 47.37929688 64.68289062 48.08984375 64.51953125 C55.99573528 62.55661442 62.2555252 59.49631653 69 55 C68 57 67 59 66 61 C66.66 61.33 67.32 61.66 68 62 C65.3260876 62.89130413 62.76276177 63.47731534 60 64 C58.84188612 66.94729537 58.84188612 66.94729537 59 70 C87.05 69.67 115.1 69.34 144 69 C145.4783226 66.04335481 145.06032783 63.25770263 145 60 C145.66 59.67 146.32 59.34 147 59 C146.67 61.31 146.34 63.62 146 66 C151.94 66 157.88 66 164 66 C164.33 65.34 164.66 64.68 165 64 C164.814375 64.639375 164.62875 65.27875 164.4375 65.9375 C164.293125 66.618125 164.14875 67.29875 164 68 C165.02527884 69.24781585 165.02527884 69.24781585 167.20826721 69.12025452 C168.18311569 69.11803391 169.15796417 69.11581329 170.16235352 69.11352539 C171.81395226 69.11341209 171.81395226 69.11341209 173.49891663 69.11329651 C175.29576149 69.10555458 175.29576149 69.10555458 177.12890625 69.09765625 C178.34827377 69.0962413 179.5676413 69.09482635 180.82395935 69.09336853 C184.7368307 69.08774967 188.64964581 69.07519396 192.5625 69.0625 C195.20768147 69.05748743 197.85286383 69.0529241 200.49804688 69.04882812 C206.99871974 69.03777411 213.49935032 69.02049683 220 69 C213.07 68.67 206.14 68.34 199 68 C199 67.34 199 66.68 199 66 C200.25554687 66.04640625 201.51109375 66.0928125 202.8046875 66.140625 C215.83524785 66.480315 224.52796799 65.19550331 235 57 C233.72278474 61.99275057 231.82669043 64.57611908 228 68 C230.70183055 69.35091528 233.11808206 69.33858058 236.125 69.5625 C237.76855469 69.68818359 237.76855469 69.68818359 239.4453125 69.81640625 C240.28835938 69.87699219 241.13140625 69.93757813 242 70 C242 70.33 242 70.66 242 71 C209.76113447 71.19599574 177.522229 71.3764973 145.28316065 71.53537826 C141.47677775 71.55415059 137.67039551 71.57305499 133.86401367 71.59204102 C132.7273437 71.59770733 132.7273437 71.59770733 131.56771071 71.60348812 C119.29891637 71.66496319 107.03020711 71.73713564 94.76149594 71.8132638 C82.17204085 71.89114398 69.58256298 71.95752289 56.99299008 72.01323253 C49.22495962 72.04796883 41.45708589 72.09166809 33.68917329 72.14684484 C27.73206064 72.18819804 21.77494727 72.21354674 15.81772041 72.2329216 C13.37438271 72.24337466 10.93106092 72.25902566 8.48779297 72.28024101 C5.15328214 72.30842028 1.81921844 72.31794009 -1.51539612 72.32279968 C-2.96726258 72.34174389 -2.96726258 72.34174389 -4.44845968 72.36107081 C-10.67656546 72.34381691 -15.67560789 71.66496508 -20.69726562 67.6394043 C-25.03458361 62.24841234 -28.7605779 56.46124137 -32.3984375 50.58325195 C-33.51040157 48.79577956 -34.64538326 47.02430533 -35.78125 45.25195312 C-36.49103756 44.11288405 -37.19942408 42.97294047 -37.90625 41.83203125 C-38.54884766 40.80827393 -39.19144531 39.7845166 -39.85351562 38.72973633 C-41 36 -41 36 -40.39086914 33.83154297 C-38.98088966 31.97483487 -37.5670714 30.42917854 -35.83984375 28.86328125 C-35.21577637 28.29053467 -34.59170898 27.71778809 -33.94873047 27.12768555 C-33.28502441 26.52867432 -32.62131836 25.92966309 -31.9375 25.3125 C-27.62510231 21.37263395 -23.38976831 17.43489975 -19.375 13.1875 C-15.16451119 8.90455536 -6.30350292 0 0 0 Z " fill="#1395CE" transform="translate(228,15)"/>
<path d="M0 0 C1.7115477 0.0001133 1.7115477 0.0001133 3.45767212 0.00022888 C4.69415497 0.00539017 5.93063782 0.01055145 7.20458984 0.01586914 C8.46693451 0.01728409 9.72927917 0.01869904 11.02987671 0.02015686 C14.38691033 0.02481461 17.74387635 0.03380131 21.10089111 0.04486084 C24.52607641 0.05508769 27.95126868 0.05965721 31.37646484 0.06469727 C38.09783777 0.07574301 44.81917865 0.09249346 51.54052734 0.11352539 C51.42497231 1.82252358 51.29759731 3.53072408 51.16552734 5.23852539 C51.09591797 6.18985352 51.02630859 7.14118164 50.95458984 8.12133789 C50.54052734 11.11352539 50.54052734 11.11352539 48.54052734 17.11352539 C29.07052734 17.11352539 9.60052734 17.11352539 -10.45947266 17.11352539 C-9.27626655 5.28146432 -9.27626655 5.28146432 -7.45947266 1.11352539 C-4.84425481 -0.19408353 -2.92833865 -0.00645009 0 0 Z " fill="#089BDB" transform="translate(39.45947265625,12.886474609375)"/>
<path d="M0 0 C1.40897804 0.00333092 1.40897804 0.00333092 2.84642029 0.00672913 C3.90744461 0.00680466 4.96846893 0.00688019 6.06164551 0.00695801 C7.21579453 0.01211929 8.36994354 0.01728058 9.55906677 0.02259827 C10.73404221 0.02401321 11.90901764 0.02542816 13.11959839 0.02688599 C16.88981116 0.0325046 20.65996556 0.04506026 24.43016052 0.05775452 C26.97898779 0.06276712 29.52781599 0.06733044 32.0766449 0.07142639 C38.34033685 0.08248007 44.60399452 0.0992363 50.86766052 0.12025452 C50.75031539 1.45428334 50.62323876 2.78745592 50.49266052 4.12025452 C50.42305115 4.86275452 50.35344177 5.60525452 50.28172302 6.37025452 C49.73491379 10.00189318 48.75839055 13.5573344 47.86766052 17.12025452 C30.04766052 17.12025452 12.22766052 17.12025452 -6.13233948 17.12025452 C-2.95352281 0.16656563 -2.95352281 0.16656563 0 0 Z " fill="#029FE2" transform="translate(102.13233947753906,12.879745483398438)"/>
<path d="M0 0 C0.33 0.99 0.66 1.98 1 3 C0.67 3.66 0.34 4.32 0 5 C-0.66 5 -1.32 5 -2 5 C-2.09087891 6.03060547 -2.09087891 6.03060547 -2.18359375 7.08203125 C-2.26738281 7.98308594 -2.35117187 8.88414063 -2.4375 9.8125 C-2.51871094 10.70582031 -2.59992187 11.59914063 -2.68359375 12.51953125 C-3 15 -3 15 -4 18 C-3.12085312 20.6569191 -3.12085312 20.6569191 -2 23 C-0.35 23 1.3 23 3 23 C2.45479004 29.83781543 1.41879889 36.40883515 -0.06640625 43.1015625 C-0.47343554 44.99215989 -0.88033266 46.88278575 -1.28710938 48.7734375 C-1.9252464 51.70763826 -2.56606036 54.64122375 -3.2097168 57.57421875 C-3.83561908 60.43603217 -4.4514688 63.29987613 -5.06640625 66.1640625 C-5.26013321 67.03197418 -5.45386017 67.89988586 -5.65345764 68.7940979 C-6.7598692 73.97112048 -7.45706919 78.70407722 -7 84 C-5.96173055 85.82751126 -5.96173055 85.82751126 -4 87 C-0.95796885 87.46221426 -0.95796885 87.46221426 2.58683777 87.39872742 C3.25910363 87.40537424 3.93136949 87.41202107 4.62400705 87.41886932 C6.88124559 87.43755223 9.13795653 87.4348906 11.39526367 87.43237305 C13.01145683 87.44138702 14.62764312 87.45171333 16.24382019 87.46325684 C20.63608236 87.490896 25.02821508 87.5001207 29.42055297 87.50611091 C34.00904354 87.51547663 38.59743672 87.5416785 43.18586731 87.56611633 C51.87682652 87.60983473 60.56776689 87.63834886 69.25880271 87.66143972 C79.15233121 87.68846281 89.04576198 87.73237606 98.93922079 87.77772844 C119.29276134 87.87065118 139.64633114 87.94229694 160 88 C160 88.33 160 88.66 160 89 C138.53848629 89.02334009 117.07697467 89.04098465 95.61545086 89.05181217 C85.65093754 89.05697276 75.68643209 89.06401097 65.72192383 89.07543945 C57.0388502 89.08539351 48.35578227 89.09185515 39.67270309 89.09408849 C35.07330069 89.09539437 30.47391462 89.09847249 25.87451744 89.10573006 C21.5481926 89.11250162 17.22189085 89.11461463 12.89556122 89.11310768 C11.305226 89.1133835 9.71489004 89.11538189 8.1245594 89.11920547 C5.95794483 89.12416044 3.79141813 89.12299158 1.62480164 89.12025452 C0.41080028 89.12117631 -0.80320108 89.1220981 -2.05399036 89.12304783 C-5 89 -5 89 -8 88 C-8 87.01 -8 86.02 -8 85 C-9.32 85 -10.64 85 -12 85 C-12.495 82.525 -12.495 82.525 -13 80 C-15.15319325 80.79019721 -15.15319325 80.79019721 -15.64453125 82.76953125 C-16.03217087 85.20186336 -15.95833324 87.24191629 -15.6875 89.6875 C-15.60886719 90.47511719 -15.53023437 91.26273437 -15.44921875 92.07421875 C-15.30097656 92.70972656 -15.15273437 93.34523438 -15 94 C-14.34 94.33 -13.68 94.66 -13 95 C-13 95.66 -13 96.32 -13 97 C-16.65316671 95.75023244 -17.78065836 95.32901247 -20 92 C-20.83755334 83.01583636 -18.46695409 74.23580801 -16.640625 65.48828125 C-16.29108557 63.78924097 -15.94195092 62.09011737 -15.59320068 60.39091492 C-14.86280146 56.8435496 -14.12556717 53.29768816 -13.38378906 49.75268555 C-12.43618797 45.21989178 -11.50885042 40.68321941 -10.58694839 36.14513874 C-9.8721009 32.64041134 -9.14502124 29.13830542 -8.41442108 25.63683128 C-8.06745385 23.96520907 -7.72460894 22.29272549 -7.38605499 20.61937904 C-6.91094567 18.27897544 -6.41904579 15.94270067 -5.92285156 13.60668945 C-5.78762085 12.92239365 -5.65239014 12.23809784 -5.51306152 11.5330658 C-4.49091059 6.84170598 -2.81834673 3.78501156 0 0 Z " fill="#1F97CC" transform="translate(20,3)"/>
<path d="M0 0 C0.79075928 0.00523682 1.58151855 0.01047363 2.39624023 0.01586914 C3.67724609 0.02070312 3.67724609 0.02070312 4.98413086 0.02563477 C5.88196289 0.03401367 6.77979492 0.04239258 7.70483398 0.05102539 C8.6065332 0.05553711 9.50823242 0.06004883 10.43725586 0.06469727 C12.67234712 0.07652315 14.90730835 0.09300319 17.14233398 0.11352539 C14.42381818 15.18618525 11.58652403 30.18870185 8.14233398 45.11352539 C1.54233398 45.11352539 -5.05766602 45.11352539 -11.85766602 45.11352539 C-10.59774283 38.86481547 -9.33556159 32.61665533 -8.06738281 26.36962891 C-7.63632401 24.24262771 -7.20663366 22.11534872 -6.77832031 19.98779297 C-6.16380341 16.93652119 -5.54443371 13.88626977 -4.92407227 10.83618164 C-4.73236954 9.87889664 -4.54066681 8.92161163 -4.34315491 7.93531799 C-4.16304367 7.05448044 -3.98293243 6.17364288 -3.79736328 5.26611328 C-3.63969986 4.48667862 -3.48203644 3.70724396 -3.31959534 2.90419006 C-2.70061004 0.50469936 -2.50127408 0.15285746 0 0 Z " fill="#049DDF" transform="translate(48.857666015625,39.886474609375)"/>
<path d="M0 0 C0.99 0.33 1.98 0.66 3 1 C3.37172932 7.31939837 2.24765762 12.72381889 0.734375 18.85546875 C-0.13421373 22.57469177 -0.62774775 26.20302709 -1 30 C-1.66 30 -2.32 30 -3 30 C-3 32.97 -3 35.94 -3 39 C-0.47636012 38.37466625 -0.47636012 38.37466625 2 37 C2.89386164 34.45224694 2.89386164 34.45224694 3 32 C3.66 32 4.32 32 5 32 C5.18369141 30.34484375 5.18369141 30.34484375 5.37109375 28.65625 C6.00932806 23.55037555 7.02640426 18.53769521 8.0625 13.5 C8.24876953 12.5821875 8.43503906 11.664375 8.62695312 10.71875 C9.08198127 8.47861146 9.53971267 6.23906274 10 4 C10.99 4.495 10.99 4.495 12 5 C9.99859814 14.93914555 7.98283247 24.8752593 5.94882584 34.80778694 C5.00473814 39.42026986 4.06557322 44.03364061 3.13769531 48.64941406 C2.24157176 53.10628107 1.33247024 57.56032164 0.41442108 62.01272202 C0.06694597 63.70937284 -0.27589204 65.40698035 -0.61394501 67.1055336 C-1.08932808 69.48990611 -1.5812915 71.87030164 -2.07714844 74.25048828 C-2.27999451 75.2981411 -2.27999451 75.2981411 -2.48693848 76.36695862 C-3.76091983 82.33239416 -6.47031692 86.92328523 -11 91 C-11.99 90.67 -12.98 90.34 -14 90 C-13.01 88.515 -13.01 88.515 -12 87 C-11.01 87 -10.02 87 -9 87 C-8.34 84.36 -7.68 81.72 -7 79 C-7.66 79 -8.32 79 -9 79 C-9 79.66 -9 80.32 -9 81 C-14.5853706 82.886698 -19.47429183 83.28069418 -25.34568787 83.24050903 C-26.26638457 83.24221788 -27.18708127 83.24392673 -28.13567787 83.24568737 C-31.20959125 83.24897211 -34.28328459 83.23799525 -37.35717773 83.22705078 C-39.56507868 83.22648645 -41.77298001 83.22680366 -43.98088074 83.22793579 C-49.96791152 83.22850944 -55.95486211 83.21675305 -61.94187427 83.20278788 C-68.20124069 83.19028263 -74.46060897 83.18911018 -80.71998596 83.18673706 C-91.22373752 83.18122779 -101.72746429 83.16873663 -112.23120117 83.15087891 C-123.04793145 83.13250823 -133.86465374 83.11835754 -144.68139648 83.10986328 C-145.34864443 83.10933783 -146.01589237 83.10881239 -146.70335995 83.10827102 C-150.05089742 83.10566086 -153.39843495 83.10313346 -156.74597251 83.10064721 C-184.49733547 83.07974393 -212.24866567 83.04456682 -240 83 C-240 82.67 -240 82.34 -240 82 C-166.41 81.67 -92.82 81.34 -17 81 C-14.86808829 76.02553934 -13.41578997 72.19317157 -12.26660156 67.05834961 C-12.11825363 66.40372238 -11.9699057 65.74909515 -11.81706238 65.07463074 C-11.334444 62.93539637 -10.86200722 60.79407986 -10.390625 58.65234375 C-10.05649629 57.15208235 -9.72207988 55.651885 -9.38739014 54.15174866 C-8.69018373 51.01845831 -7.99838457 47.88403191 -7.31005859 44.7487793 C-6.42902556 40.73914672 -5.53158309 36.733388 -4.62970352 32.72840023 C-3.9356931 29.63566057 -3.2519208 26.54072372 -2.57103729 23.44507027 C-2.24440124 21.96717571 -1.91426751 20.49004953 -1.580513 19.01374626 C-1.11496946 16.94876085 -0.66370442 14.88113291 -0.21582031 12.81225586 C0.04382507 11.63868027 0.30347046 10.46510468 0.57098389 9.25596619 C1.01473581 5.88816432 0.73814589 3.29895365 0 0 Z M-5 40 C-4 43 -4 43 -4 43 Z " fill="#1D92C7" transform="translate(490,8)"/>
<path d="M0 0 C47.33333333 0 94.66666667 0 142 0 C142.804375 -0.061875 143.60875 -0.12375 144.4375 -0.1875 C147 0 147 0 148.6875 1.4375 C149.120625 1.953125 149.55375 2.46875 150 3 C150.99 3.495 150.99 3.495 152 4 C152 5.98 152 7.96 152 10 C151.34 10 150.68 10 150 10 C149.9175 11.27875 149.835 12.5575 149.75 13.875 C148.95862921 22.04856103 146.86905573 30.0195667 145 38 C144.34 38 143.68 38 143 38 C143 39.65 143 41.3 143 43 C142.01 43.33 141.02 43.66 140 44 C139.67 44.66 139.34 45.32 139 46 C138.01 46 137.02 46 136 46 C136.33 42.7 136.66 39.4 137 36 C137.66 36 138.32 36 139 36 C138.938125 34.948125 138.87625 33.89625 138.8125 32.8125 C138.78536315 27.71981712 140.11318537 23.05997074 141.33203125 18.14453125 C142.15176593 14.28554633 142.23080864 10.92374691 142 7 C136.03480769 2.95352333 129.73867403 3.5596555 122.74267578 3.56762695 C121.39204515 3.55860294 120.04142271 3.54827415 118.69081116 3.53674316 C115.03630253 3.50922179 111.38194952 3.49989533 107.72735071 3.49388909 C103.90361042 3.4844927 100.07998578 3.45828831 96.25631714 3.43388367 C89.02105783 3.39024971 81.785821 3.36168373 74.55047023 3.33856028 C66.31100162 3.31149193 58.07164953 3.26758145 49.83226418 3.22227156 C32.88823615 3.12946977 15.94418294 3.05776864 -1 3 C-0.67 2.01 -0.34 1.02 0 0 Z " fill="#039FE1" transform="translate(350,2)"/>
<path d="M0 0 C0.66 1.32 1.32 2.64 2 4 C2.66 4 3.32 4 4 4 C4.33 3.01 4.66 2.02 5 1 C5.33 2.65 5.66 4.3 6 6 C9.14191424 4.46395304 12.08596738 2.94268841 15 1 C15.99 1.33 16.98 1.66 18 2 C18 3.98 18 5.96 18 8 C18.66 8 19.32 8 20 8 C20.33 6.68 20.66 5.36 21 4 C29.25 4 37.5 4 46 4 C46.495 4.99 46.495 4.99 47 6 C47.66 5.67 48.32 5.34 49 5 C49.07972012 9.7034873 48.93491183 13.32544083 48 18 C31.17 18 14.34 18 -3 18 C-1 3 -1 3 0 0 Z " fill="#039FE1" transform="translate(90,66)"/>
<path d="M0 0 C1.66666667 0.33333333 3.33333333 0.66666667 5 1 C5.33 0.67 5.66 0.34 6 0 C7.99958364 -0.04080783 10.00045254 -0.04254356 12 0 C8.77593116 2.47410558 5.43433682 4.73265856 2.0625 7 C-2.729526 10.26336494 -7.19071577 13.75718373 -11.5625 17.5625 C-27.07074296 31 -27.07074296 31 -34 31 C-34.70125 30.2575 -35.4025 29.515 -36.125 28.75 C-40.79080292 24.28705808 -46.77257213 22.43820505 -53 21 C-52.52555245 18.35323911 -52.04568672 15.70766636 -51.5625 13.0625 C-51.42779297 12.30775391 -51.29308594 11.55300781 -51.15429688 10.77539062 C-50.11328125 5.11328125 -50.11328125 5.11328125 -49 4 C-47.5112814 3.91330568 -46.018555 3.89296506 -44.52734375 3.90234375 C-43.62822266 3.90556641 -42.72910156 3.90878906 -41.80273438 3.91210938 C-40.85720703 3.92048828 -39.91167969 3.92886719 -38.9375 3.9375 C-37.98810547 3.94201172 -37.03871094 3.94652344 -36.06054688 3.95117188 C-33.70696935 3.9629989 -31.35351523 3.97947975 -29 4 C-29.57264163 11.44352195 -30.56553939 18.67368796 -32 26 C-31.55833496 25.63350342 -31.11666992 25.26700684 -30.66162109 24.8894043 C-21.71941805 17.47687989 -12.72861975 10.14591989 -3.5625 3.01171875 C-1.19854243 1.23839123 -1.19854243 1.23839123 0 0 Z " fill="#099CDB" transform="translate(213,9)"/>
<path d="M0 0 C1.76937187 -0.03721037 3.5389687 -0.06383333 5.30859375 -0.0859375 C6.29400146 -0.10188965 7.27940918 -0.1178418 8.29467773 -0.13427734 C12.73904337 0.08631656 14.96660223 1.96660223 18 5 C19.94312414 12.61056956 18.68340953 20.63650804 14.75 27.4375 C11.83891515 31.61576296 8.4760583 34.23813591 3.5625 35.75 C0.36325968 36.06212101 -2.78794603 36.06298145 -6 36 C-5.45548361 27.77852571 -4.12288195 19.87117503 -2.4375 11.8125 C-2.20353516 10.66974609 -1.96957031 9.52699219 -1.72851562 8.34960938 C-1.15766629 5.56526262 -0.58141765 2.78215551 0 0 Z " fill="#069DDE" transform="translate(268,31)"/>
<path d="M0 0 C3.375 0.5625 3.375 0.5625 5.05859375 2.3046875 C7.35864803 6.24958771 6.96960532 10.13527559 6.375 14.5625 C4.89332859 19.3634059 3.61760053 22.73409965 -0.625 25.5625 C-3.36517754 26.08733239 -5.88639905 26.11022019 -8.625 25.5625 C-11.2564562 22.84881079 -11.57753109 20.98180866 -12 17.25 C-11.40896582 11.4381639 -9.88588256 7.24367675 -6.375 2.5625 C-3.625 0.5625 -3.625 0.5625 0 0 Z " fill="#069CDC" transform="translate(444.625,44.4375)"/>
<path d="M0 0 C0 4.21134379 -0.63021238 5.61217396 -3.5625 8.6875 C-4.366875 9.450625 -5.17125 10.21375 -6 11 C-3.29816945 12.35091528 -0.88191794 12.33858058 2.125 12.5625 C3.76855469 12.68818359 3.76855469 12.68818359 5.4453125 12.81640625 C6.28835938 12.87699219 7.13140625 12.93757813 8 13 C8 13.33 8 13.66 8 14 C-53.38 14 -114.76 14 -178 14 C-178 13.67 -178 13.34 -178 13 C-134.44 12.505 -134.44 12.505 -90 12 C-88.5216774 9.04335481 -88.93967217 6.25770263 -89 3 C-88.34 2.67 -87.68 2.34 -87 2 C-87.33 4.31 -87.66 6.62 -88 9 C-82.06 9 -76.12 9 -70 9 C-69.67 8.34 -69.34 7.68 -69 7 C-69.2784375 7.9590625 -69.2784375 7.9590625 -69.5625 8.9375 C-69.7790625 9.9584375 -69.7790625 9.9584375 -70 11 C-68.97472116 12.24781585 -68.97472116 12.24781585 -66.79173279 12.12025452 C-65.81688431 12.11803391 -64.84203583 12.11581329 -63.83764648 12.11352539 C-62.18604774 12.11341209 -62.18604774 12.11341209 -60.50108337 12.11329651 C-59.3031868 12.10813522 -58.10529022 12.10297394 -56.87109375 12.09765625 C-55.65172623 12.0962413 -54.4323587 12.09482635 -53.17604065 12.09336853 C-49.2631693 12.08774967 -45.35035419 12.07519396 -41.4375 12.0625 C-38.79231853 12.05748743 -36.14713617 12.0529241 -33.50195312 12.04882812 C-27.00128026 12.03777411 -20.50064968 12.02049683 -14 12 C-20.93 11.67 -27.86 11.34 -35 11 C-35 10.34 -35 9.68 -35 9 C-33.11667969 9.06960937 -33.11667969 9.06960937 -31.1953125 9.140625 C-18.73800924 9.46533849 -9.42097905 8.92513805 0 0 Z " fill="#1C8ABF" transform="translate(462,72)"/>
<path d="M0 0 C0.33 1.32 0.66 2.64 1 4 C2.32 3.67 3.64 3.34 5 3 C5.02718316 5.85423192 5.04692705 8.70820015 5.0625 11.5625 C5.07087891 12.36236328 5.07925781 13.16222656 5.08789062 13.98632812 C5.10316356 17.72819746 5.02077325 21.27439629 4.37109375 24.96484375 C4.24863281 25.96644531 4.12617188 26.96804687 4 28 C4.66 28.66 5.32 29.32 6 30 C6.66 30 7.32 30 8 30 C8.03738281 29.14277344 8.07476562 28.28554687 8.11328125 27.40234375 C8.49118914 20.82971051 9.11495667 15.88548839 12 10 C12.77349709 7.34935753 13.38559554 4.69392723 14 2 C14.33 2 14.66 2 15 2 C14.41236415 8.0132509 13.52347104 13.79501404 12.1875 19.68359375 C12.01371826 20.46517349 11.83993652 21.24675323 11.66088867 22.05201721 C11.2967096 23.68517106 10.93023252 25.31781408 10.56152344 26.94995117 C9.99620402 29.45431619 9.43897841 31.96038485 8.8828125 34.46679688 C8.5265117 36.06000102 8.16975739 37.65310383 7.8125 39.24609375 C7.64580811 39.99499374 7.47911621 40.74389374 7.30737305 41.51548767 C6.11591119 46.76817763 6.11591119 46.76817763 5 49 C2.89646505 49.0810206 0.79204048 49.13919907 -1.3125 49.1875 C-2.48425781 49.22230469 -3.65601563 49.25710937 -4.86328125 49.29296875 C-8 49 -8 49 -9.91796875 47.48828125 C-10.27503906 46.99714844 -10.63210938 46.50601563 -11 46 C-10.05125 45.319375 -9.1025 44.63875 -8.125 43.9375 C-4.65378462 41.05833771 -4.0577303 38.38202553 -3 34 C-2.35239185 32.74935592 -1.66362001 31.51925461 -0.9375 30.3125 C2.79227882 23.93578136 2.67153576 17.26318937 2 10 C0.96996143 7.20016789 -0.21336504 5.4363204 -2 3 C-2.33 2.34 -2.66 1.68 -3 1 C-2.01 0.67 -1.02 0.34 0 0 Z " fill="#1793CC" transform="translate(466,36)"/>
<path d="M0 0 C0.04254356 1.99954746 0.04080783 4.00041636 0 6 C-0.33 6.33 -0.66 6.66 -1 7 C-1.27152653 8.32775172 -1.48996868 9.66648457 -1.68359375 11.0078125 C-1.80669922 11.83023438 -1.92980469 12.65265625 -2.05664062 13.5 C-2.30713593 15.22649071 -2.55714963 16.95305138 -2.80664062 18.6796875 C-5.12034104 34.12034104 -5.12034104 34.12034104 -10 39 C-10.66 39.0825 -11.32 39.165 -12 39.25 C-12.66 39.4975 -13.32 39.745 -14 40 C-15.17082878 42.92914165 -15.17082878 42.92914165 -16 46 C-16.66 46.66 -17.32 47.32 -18 48 C-17.42073068 39.7195734 -15.861665 31.73226051 -14.125 23.625 C-13.74021484 21.73974609 -13.74021484 21.73974609 -13.34765625 19.81640625 C-12.96287109 18.00849609 -12.96287109 18.00849609 -12.5703125 16.1640625 C-12.34102051 15.07561035 -12.11172852 13.9871582 -11.87548828 12.86572266 C-10.98842919 9.96212543 -9.88648401 8.33276276 -8 6 C-7.28566879 3.35065178 -7.28566879 3.35065178 -7 1 C-4.50935112 0.31292445 -2.62113708 0 0 0 Z " fill="#069CDD" transform="translate(21,28)"/>
<path d="M0 0 C0.66 0.33 1.32 0.66 2 1 C2 1.66 2 2.32 2 3 C2.66 3 3.32 3 4 3 C4.02911321 6.0833134 4.04683682 9.16659125 4.0625 12.25 C4.07087891 13.12269531 4.07925781 13.99539062 4.08789062 14.89453125 C4.09111328 15.73886719 4.09433594 16.58320312 4.09765625 17.453125 C4.10289307 18.22817383 4.10812988 19.00322266 4.11352539 19.80175781 C4.00036998 21.99283598 3.60552448 23.89637861 3 26 C3.99 26 4.98 26 6 26 C5.34 25.67 4.68 25.34 4 25 C4.33 24.01 4.66 23.02 5 22 C5.99 22.33 6.98 22.66 8 23 C7.98839844 22.36191406 7.97679687 21.72382812 7.96484375 21.06640625 C7.95582031 20.24011719 7.94679688 19.41382812 7.9375 18.5625 C7.92589844 17.73878906 7.91429687 16.91507813 7.90234375 16.06640625 C8 14 8 14 9 13 C9.04080783 11.00041636 9.04254356 8.99954746 9 7 C9.66 7 10.32 7 11 7 C11 5.02 11 3.04 11 1 C11.66 0.67 12.32 0.34 13 0 C11.47680981 11.52587222 9.45607804 22.9395813 7.375 34.375 C7.04664059 36.19006178 6.71851406 38.0051657 6.390625 39.8203125 C5.59685416 44.2141147 4.79833636 48.60701541 4 53 C13.9 52.505 13.9 52.505 24 52 C24.33 50.02 24.66 48.04 25 46 C25.33 46 25.66 46 26 46 C26.125 49.375 26.125 49.375 26 53 C24 55 24 55 22.07641602 55.24291992 C20.92677368 55.23675659 20.92677368 55.23675659 19.75390625 55.23046875 C18.91666016 55.22853516 18.07941406 55.22660156 17.21679688 55.22460938 C15.90291992 55.20624023 15.90291992 55.20624023 14.5625 55.1875 C13.69044922 55.18685547 12.81839844 55.18621094 11.91992188 55.18554688 C5.42178302 55.14059434 5.42178302 55.14059434 2 54 C1.875 48.25 1.875 48.25 3 46 C3.06950541 44.45976004 3.08452357 42.91665012 3.0625 41.375 C3.05347656 40.55773437 3.04445313 39.74046875 3.03515625 38.8984375 C3.02355469 38.27195313 3.01195312 37.64546875 3 37 C2.01 37.495 2.01 37.495 1 38 C1.33 39.32 1.66 40.64 2 42 C-0.64 41.34 -3.28 40.68 -6 40 C-6 40.66 -6 41.32 -6 42 C-6.66 41.67 -7.32 41.34 -8 41 C-7.60167969 40.40574219 -7.20335937 39.81148437 -6.79296875 39.19921875 C0.56238761 27.69193374 2.85311289 15.58520546 0.484375 2.0546875 C0.32453125 1.37664063 0.1646875 0.69859375 0 0 Z " fill="#1395CF" transform="translate(305,28)"/>
<path d="M0 0 C4.29329332 3.98774872 7.46676937 8.35161385 10.75 13.1875 C20.06905658 27.69280983 20.06905658 27.69280983 33.8125 36.75 C34.534375 36.8325 35.25625 36.915 36 37 C36 37.33 36 37.66 36 38 C33.03 38.495 33.03 38.495 30 39 C30 39.66 30 40.32 30 41 C28.68 41 27.36 41 26 41 C25.67 39.02 25.34 37.04 25 35 C23.68 35.66 22.36 36.32 21 37 C12.44705862 27.76853717 4.15128687 18.3809003 -3 8 C-2.34 6.68 -1.68 5.36 -1 4 C-1.66 3.67 -2.32 3.34 -3 3 C-2.01 2.01 -1.02 1.02 0 0 Z " fill="#089BDA" transform="translate(178,53)"/>
<path d="M0 0 C1.8125 2.5625 1.8125 2.5625 3 5 C1.35 4.34 -0.3 3.68 -2 3 C-2 2.34 -2 1.68 -2 1 C-4.31 1.66 -6.62 2.32 -9 3 C-9 2.34 -9 1.68 -9 1 C-94.8 1 -180.6 1 -269 1 C-269 0.67 -269 0.34 -269 0 C-235.45309314 -0.15038632 -201.90616801 -0.29541632 -168.35920729 -0.4332476 C-164.40003452 -0.44951888 -160.44086193 -0.46583458 -156.48168945 -0.48217773 C-155.69347871 -0.48543066 -154.90526796 -0.48868358 -154.09317204 -0.49203508 C-141.32514687 -0.54483435 -128.55714001 -0.60123294 -115.78913627 -0.6589582 C-102.69115297 -0.71809535 -89.59315749 -0.77337263 -76.49514264 -0.82505554 C-68.41087217 -0.85707692 -60.32662634 -0.89212058 -52.24238595 -0.93101191 C-46.04677738 -0.96049524 -39.85115857 -0.98461218 -33.65551949 -1.00670624 C-31.1113841 -1.01662411 -28.56725487 -1.02829671 -26.02313614 -1.04183006 C-22.5566678 -1.06001071 -19.0902328 -1.07194836 -15.62373352 -1.08229065 C-14.61108738 -1.08909444 -13.59844123 -1.09589823 -12.55510885 -1.10290819 C-11.62553717 -1.10440054 -10.6959655 -1.10589289 -9.73822498 -1.10743046 C-8.53811888 -1.11255668 -8.53811888 -1.11255668 -7.31376821 -1.11778647 C-4.75458353 -0.98750664 -2.46920479 -0.69632401 0 0 Z " fill="#1296D4" transform="translate(499,1)"/>
<path d="M0 0 C1.66666667 0.33333333 3.33333333 0.66666667 5 1 C5.33 0.67 5.66 0.34 6 0 C7.99958364 -0.04080783 10.00045254 -0.04254356 12 0 C8.77593116 2.47410558 5.43433682 4.73265856 2.0625 7 C-2.729526 10.26336494 -7.19071577 13.75718373 -11.5625 17.5625 C-27.07074296 31 -27.07074296 31 -34 31 C-36.01623639 29.21722256 -37.37344618 27.16873843 -39 25 C-37.35 25.33 -35.7 25.66 -34 26 C-33.67 23.69 -33.34 21.38 -33 19 C-32.67 19 -32.34 19 -32 19 C-32 21.31 -32 23.62 -32 26 C-31.55833496 25.63350342 -31.11666992 25.26700684 -30.66162109 24.8894043 C-21.71941805 17.47687989 -12.72861975 10.14591989 -3.5625 3.01171875 C-1.19854243 1.23839123 -1.19854243 1.23839123 0 0 Z " fill="#1296CD" transform="translate(213,9)"/>
<path d="M0 0 C19.14 0 38.28 0 58 0 C58 0.66 58 1.32 58 2 C55.36 2.33 52.72 2.66 50 3 C49.67 3.99 49.34 4.98 49 6 C50.98 6.33 52.96 6.66 55 7 C55 6.34 55 5.68 55 5 C56.32 4.34 57.64 3.68 59 3 C59 5.66666667 59 8.33333333 59 11 C60.43750191 12.68798827 60.43750191 12.68798827 62 14 C61.67 14.99 61.34 15.98 61 17 C60.401875 16.0925 59.80375 15.185 59.1875 14.25 C54.98693783 9.35987906 49.17383862 7.47643983 42.85586548 6.75524902 C37.01467752 6.33518707 31.1662539 6.29686927 25.3125 6.25 C23.53187266 6.22179012 21.75127176 6.19185583 19.97070312 6.16015625 C15.64718357 6.08689063 11.32397612 6.03695434 7 6 C7 5.34 7 4.68 7 4 C14.92 3.67 22.84 3.34 31 3 C20.77 2.67 10.54 2.34 0 2 C0 1.34 0 0.68 0 0 Z " fill="#189AD3" transform="translate(243,11)"/>
<path d="M0 0 C1.89510699 -0.08160748 3.79124504 -0.13946459 5.6875 -0.1875 C6.74324219 -0.22230469 7.79898437 -0.25710937 8.88671875 -0.29296875 C12.4144857 0.0390043 14.23365947 0.80809084 17 3 C17.76934493 7.1544626 17.41874952 9.24302971 15.375 12.9375 C9.9428683 16.25713604 4.20594005 15.37789892 -2 15 C-1.85816304 13.24967156 -1.71136571 11.49974466 -1.5625 9.75 C-1.48128906 8.77546875 -1.40007812 7.8009375 -1.31640625 6.796875 C-1.04925416 4.43538247 -0.64628032 2.28098935 0 0 Z " fill="#0E98D3" transform="translate(338,31)"/>
<path d="M0 0 C36.96 0 73.92 0 112 0 C112 0.33 112 0.66 112 1 C101.66089977 2.19797794 91.34371614 2.13610082 80.95062637 2.13809967 C75.55296102 2.14245415 70.15541069 2.17352769 64.7578125 2.19921875 C57.9172798 2.22963478 51.07693494 2.25230795 44.23632812 2.25048828 C38.67853721 2.24970181 33.1213017 2.27301928 27.56365585 2.3123703 C25.45299653 2.32282438 23.3422731 2.32435872 21.23160172 2.31671906 C18.28545868 2.30710718 15.34100947 2.32825425 12.39501953 2.35644531 C11.52842209 2.34624863 10.66182465 2.33605194 9.76896667 2.32554626 C5.59832356 2.3970775 2.83088694 2.69910993 -0.50125122 5.33319092 C-3.16553271 8.17666607 -4.12476759 10.23650062 -5 14 C-5.66 13.67 -6.32 13.34 -7 13 C-7 10.69 -7 8.38 -7 6 C-5.68 6 -4.36 6 -3 6 C-3.33 4.35 -3.66 2.7 -4 1 C-3.01 1.33 -2.02 1.66 -1 2 C-0.67 1.34 -0.34 0.68 0 0 Z " fill="#1A90C4" transform="translate(30,7)"/>
<path d="M0 0 C0.33 0 0.66 0 1 0 C1.24613739 6.52264091 0.53020433 12.64462582 -1 19 C-1.33 19.33 -1.66 19.66 -2 20 C-2.20775561 21.66204487 -2.36718255 23.33029491 -2.5 25 C-2.88888889 29.88888889 -2.88888889 29.88888889 -4 31 C-4.36760731 33.32817964 -4.70241581 35.6618385 -5 38 C-5.495 36.515 -5.495 36.515 -6 35 C-8.475 35.495 -8.475 35.495 -11 36 C-13.08498144 28.95528998 -10.88730415 22.14311756 -8.68359375 15.36328125 C-7.86180865 12.77323285 -7.86180865 12.77323285 -7.5625 9.0625 C-7 6 -7 6 -5.0625 4.0625 C-3 3 -3 3 -1 3 C-0.67 2.01 -0.34 1.02 0 0 Z " fill="#039FE1" transform="translate(490,50)"/>
<path d="M0 0 C17.49 0 34.98 0 53 0 C52 9 52 9 50 17 C32.18 17 14.36 17 -4 17 C-3.67 15.02 -3.34 13.04 -3 11 C-2.67 11 -2.34 11 -2 11 C-2 12.65 -2 14.3 -2 16 C14.83 16 31.66 16 49 16 C49.33 13.36 49.66 10.72 50 8 C49.34 7.67 48.68 7.34 48 7 C48.99 6.67 49.98 6.34 51 6 C50.505 4.515 50.505 4.515 50 3 C25.25 2.505 25.25 2.505 0 2 C-0.33 4.31 -0.66 6.62 -1 9 C-2 6 -2 6 0 0 Z " fill="#208DC1" transform="translate(100,13)"/>
<path d="M0 0 C0.33 0 0.66 0 1 0 C1 9 1 9 -3 27 C13.83 27 30.66 27 48 27 C48 23.04 48 19.08 48 15 C47.34 15.33 46.68 15.66 46 16 C46 15.01 46 14.02 46 13 C33.625 13.495 33.625 13.495 21 14 C20.67 14.99 20.34 15.98 20 17 C19.34 17 18.68 17 18 17 C17.957279 15.33388095 17.95936168 13.66617115 18 12 C19 11 19 11 22.05102539 10.88647461 C23.39991271 10.88663366 24.74880614 10.89232388 26.09765625 10.90234375 C27.16094398 10.90446617 27.16094398 10.90446617 28.24571228 10.90663147 C30.51801712 10.91224557 32.79022475 10.92480037 35.0625 10.9375 C36.59960796 10.94251319 38.13671745 10.94707641 39.67382812 10.95117188 C43.44925642 10.96221958 47.22461171 10.97949359 51 11 C53.55168789 16.10337579 50.11898917 22.40505417 49 28 C31.18 28 13.36 28 -5 28 C-2.75 13.375 -2.75 13.375 -1.375 6.6875 C-1.11460938 5.41261719 -0.85421875 4.13773438 -0.5859375 2.82421875 C-0.39257812 1.89222656 -0.19921875 0.96023437 0 0 Z " fill="#238CBA" transform="translate(90,57)"/>
<path d="M0 0 C17.16 0 34.32 0 52 0 C52 0.33 52 0.66 52 1 C49.03 1 46.06 1 43 1 C43 1.66 43 2.32 43 3 C43.66 3.33 44.32 3.66 45 4 C42.16592863 4.81386532 39.72555644 5.10348768 36.78222656 5.02172852 C35.96167786 5.00163223 35.14112915 4.98153595 34.29571533 4.96083069 C33.41953552 4.93379562 32.54335571 4.90676056 31.640625 4.87890625 C30.73624695 4.85529526 29.8318689 4.83168427 28.90008545 4.80735779 C26.01655712 4.73089281 23.13330903 4.64679464 20.25 4.5625 C18.29298238 4.50926213 16.33595116 4.45652185 14.37890625 4.40429688 C9.58576063 4.27530089 4.79285213 4.13945947 0 4 C0 2.68 0 1.36 0 0 Z " fill="#0D97EA" transform="translate(319,11)"/>
<path d="M0 0 C0.33 0 0.66 0 1 0 C1 3.3 1 6.6 1 10 C2.65 10 4.3 10 6 10 C5.65066406 10.67546875 5.30132812 11.3509375 4.94140625 12.046875 C4.48636719 12.93890625 4.03132813 13.8309375 3.5625 14.75 C3.11003906 15.63171875 2.65757812 16.5134375 2.19140625 17.421875 C-1.01313908 24.35630096 -0.94851412 32.44307205 1 39.75 C1.33 40.4925 1.66 41.235 2 42 C-1.05485009 39.96343327 -1.73200925 39.27763646 -3 36 C-3.75712578 30.07660419 -2.64966535 24.67072464 -1 19 C-1.66 19.33 -2.32 19.66 -3 20 C-5.0374763 20.22858114 -7.08040303 20.41024278 -9.125 20.5625 C-10.22070312 20.64628906 -11.31640625 20.73007812 -12.4453125 20.81640625 C-13.28835938 20.87699219 -14.13140625 20.93757813 -15 21 C-15 21.99 -15 22.98 -15 24 C-15.66 24.33 -16.32 24.66 -17 25 C-17.650539 27.08611558 -17.650539 27.08611558 -18.0625 29.5 C-18.90606654 33.90606654 -18.90606654 33.90606654 -20 35 C-20.28101946 37.31952569 -20.44782625 39.63885514 -20.62109375 41.96875 C-20.74613281 42.6390625 -20.87117188 43.309375 -21 44 C-21.99 44.495 -21.99 44.495 -23 45 C-22.04269049 27.6363862 -22.04269049 27.6363862 -16.4375 20.9375 C-13.11296599 18.29492168 -11.54043382 17.8779938 -7.375 17.9375 C-6.14910156 17.95103516 -6.14910156 17.95103516 -4.8984375 17.96484375 C-4.27195312 17.97644531 -3.64546875 17.98804687 -3 18 C-2.86722656 17.03578125 -2.73445313 16.0715625 -2.59765625 15.078125 C-2.42105469 13.81484375 -2.24445313 12.5515625 -2.0625 11.25 C-1.88847656 9.99703125 -1.71445312 8.7440625 -1.53515625 7.453125 C-1.13950662 4.90017407 -0.69553578 2.4813709 0 0 Z " fill="#1D91C4" transform="translate(416,33)"/>
<path d="M0 0 C1.32 0.33 2.64 0.66 4 1 C5.37965578 5.55286408 4.38032771 8.53423389 3 13 C3 14.32 3 15.64 3 17 C1.06318839 17.08107583 -0.8745934 17.13922475 -2.8125 17.1875 C-3.89144531 17.22230469 -4.97039062 17.25710937 -6.08203125 17.29296875 C-9 17 -9 17 -10.88671875 15.48828125 C-11.43779297 14.75158203 -11.43779297 14.75158203 -12 14 C-11.05125 13.278125 -10.1025 12.55625 -9.125 11.8125 C-6.25788626 9.45449991 -5.31514769 7.47574748 -4 4 C-1.875 2.6875 -1.875 2.6875 0 2 C0 1.34 0 0.68 0 0 Z " fill="#029FE1" transform="translate(467,68)"/>
<path d="M0 0 C0.33 0.99 0.66 1.98 1 3 C0.67 3.66 0.34 4.32 0 5 C-0.66 5 -1.32 5 -2 5 C-2.06058594 5.68707031 -2.12117188 6.37414062 -2.18359375 7.08203125 C-2.26738281 7.98308594 -2.35117187 8.88414063 -2.4375 9.8125 C-2.51871094 10.70582031 -2.59992187 11.59914063 -2.68359375 12.51953125 C-3 15 -3 15 -4 18 C-3.12085312 20.6569191 -3.12085312 20.6569191 -2 23 C-0.35 23 1.3 23 3 23 C2.34322094 33.07061228 0.06251705 42.78483094 -2.0625 52.625 C-2.44385324 54.41005081 -2.82471686 56.1952063 -3.20507812 57.98046875 C-4.13107368 62.32154087 -5.06369945 66.66113936 -6 71 C-6.33 71 -6.66 71 -7 71 C-7.2236337 69.58566794 -7.42826476 68.16832382 -7.625 66.75 C-7.74101562 65.96109375 -7.85703125 65.1721875 -7.9765625 64.359375 C-8.00414217 61.58302202 -7.30300692 60.42873398 -6 58 C-4.22206175 52.55843142 -3.31141291 47.14422388 -2.5 41.5 C-1.68673114 35.84286608 -0.70313157 30.46176677 1 25 C-1.94818931 25.48026848 -1.94818931 25.48026848 -5 27 C-6.44088563 29.28536073 -7.13569208 31.40707624 -8 34 C-9.78286862 28.65060768 -7.94312484 23.48193233 -6.8125 18.125 C-6.60302734 17.04863281 -6.39355469 15.97226562 -6.17773438 14.86328125 C-4.9695188 9.04807158 -3.77145241 4.63557534 0 0 Z " fill="#1192CB" transform="translate(20,3)"/>
<path d="M0 0 C4.34738116 4.0437038 7.63874824 8.49521318 11 13.375 C12.02067838 14.84125371 13.04151009 16.3074007 14.0625 17.7734375 C14.55105469 18.47823242 15.03960937 19.18302734 15.54296875 19.90917969 C17.66831576 22.95902416 19.83257469 25.97994782 22 29 C18.20620942 27.50958227 16.31656242 25.30937488 14 22 C14 21.34 14 20.68 14 20 C13.01 19.67 12.02 19.34 11 19 C8 17 8 17 7.4375 14.4375 C7.293125 13.633125 7.14875 12.82875 7 12 C6.34 11.67 5.68 11.34 5 11 C4.67 11.66 4.34 12.32 4 13 C3.67 13.33 3.34 13.66 3 14 C4.32 14.33 5.64 14.66 7 15 C7 16.65 7 18.3 7 20 C3.0747975 16.29909479 0.05419844 12.45040344 -3 8 C-2.34 6.68 -1.68 5.36 -1 4 C-1.66 3.67 -2.32 3.34 -3 3 C-2.01 2.01 -1.02 1.02 0 0 Z " fill="#0B9AD7" transform="translate(178,53)"/>
<path d="M0 0 C2.31 0.33 4.62 0.66 7 1 C6.01 1.33 5.02 1.66 4 2 C4 2.66 4 3.32 4 4 C5.85516235 3.99214478 5.85516235 3.99214478 7.74780273 3.98413086 C12.31924725 3.96608439 16.89068859 3.95456929 21.4621582 3.94506836 C23.44393441 3.94002733 25.42570689 3.93319462 27.4074707 3.92456055 C30.24952109 3.91248485 33.09152247 3.90676955 35.93359375 3.90234375 C36.82525742 3.89718246 37.71692108 3.89202118 38.63560486 3.88670349 C40.75740601 3.88650823 42.8791078 3.9378997 45 4 C45.495 4.495 45.495 4.495 46 5 C48.32817964 5.36760731 50.6618385 5.70241581 53 6 C52.67 6.66 52.34 7.32 52 8 C50.55935181 7.76228882 50.55935181 7.76228882 49.08959961 7.51977539 C44.58683997 6.87918503 40.10856986 6.77409074 35.56640625 6.68359375 C34.68846909 6.66281265 33.81053192 6.64203156 32.9059906 6.62062073 C30.12490015 6.55568055 27.34372215 6.49650073 24.5625 6.4375 C22.66730896 6.39426186 20.7721265 6.35064595 18.87695312 6.30664062 C14.25138987 6.20005678 9.62573929 6.09863592 5 6 C4.67 8.97 4.34 11.94 4 15 C3.67 15 3.34 15 3 15 C2.67 12.03 2.34 9.06 2 6 C1.01 6 0.02 6 -1 6 C-0.01 5.01 0.98 4.02 2 3 C1.34 2.67 0.68 2.34 0 2 C0 1.34 0 0.68 0 0 Z " fill="#1E95C8" transform="translate(315,11)"/>
<path d="M0 0 C0.66 0 1.32 0 2 0 C2 2.66666667 2 5.33333333 2 8 C3.43750191 9.68798827 3.43750191 9.68798827 5 11 C4.67 11.99 4.34 12.98 4 14 C3.401875 13.0925 2.80375 12.185 2.1875 11.25 C-2.01306217 6.35987906 -7.82616138 4.47643983 -14.14413452 3.75524902 C-19.98532248 3.33518707 -25.8337461 3.29686927 -31.6875 3.25 C-33.46812734 3.22179012 -35.24872824 3.19185583 -37.02929688 3.16015625 C-41.35281643 3.08689063 -45.67602388 3.03695434 -50 3 C-50 2.34 -50 1.68 -50 1 C-44.77135257 0.92523931 -39.54302372 0.87111237 -34.31396484 0.83520508 C-32.53917004 0.82021907 -30.76441163 0.79982318 -28.98974609 0.77368164 C-10.0632125 0.50208535 -10.0632125 0.50208535 -2 4 C-2 3.34 -2 2.68 -2 2 C-1.34 1.34 -0.68 0.68 0 0 Z " fill="#1F93C6" transform="translate(300,14)"/>
<path d="M0 0 C3.17538332 0.34021964 4.02276865 1.02466604 6.25 3.4375 C8 6 8 6 8 8 C8.66 8 9.32 8 10 8 C10 11.63 10 15.26 10 19 C11.32 19 12.64 19 14 19 C14.33 18.34 14.66 17.68 15 17 C14.34 21.62 13.68 26.24 13 31 C12.67 29.68 12.34 28.36 12 27 C11.01 27.33 10.02 27.66 9 28 C9 28.66 9 29.32 9 30 C7.35 30.33 5.7 30.66 4 31 C4.2165625 30.41734375 4.433125 29.8346875 4.65625 29.234375 C6.94900503 22.48348519 7.94486108 16.11726879 7 9 C5.1573889 5.37831612 3.00935265 2.70841738 0 0 Z " fill="#1892C5" transform="translate(367,19)"/>
<path d="M0 0 C1.34888732 0.00015905 2.69778075 0.00584927 4.04663086 0.01586914 C5.10991859 0.01799156 5.10991859 0.01799156 6.19468689 0.02015686 C8.46699173 0.02577096 10.73919936 0.03832576 13.01147461 0.05102539 C14.54858257 0.05603858 16.08569206 0.0606018 17.62280273 0.06469727 C21.39823103 0.07574497 25.17358632 0.09301898 28.94897461 0.11352539 C30.29465384 2.80488385 29.72122082 4.25229434 29.13647461 7.17602539 C28.9650293 8.07450195 28.79358398 8.97297852 28.61694336 9.89868164 C28.28629883 10.9950293 28.28629883 10.9950293 27.94897461 12.11352539 C26.95897461 12.60852539 26.95897461 12.60852539 25.94897461 13.11352539 C25.94897461 10.14352539 25.94897461 7.17352539 25.94897461 4.11352539 C24.95897461 4.60852539 24.95897461 4.60852539 23.94897461 5.11352539 C23.94897461 4.12352539 23.94897461 3.13352539 23.94897461 2.11352539 C11.57397461 2.60852539 11.57397461 2.60852539 -1.05102539 3.11352539 C-1.38102539 4.10352539 -1.71102539 5.09352539 -2.05102539 6.11352539 C-2.71102539 6.11352539 -3.37102539 6.11352539 -4.05102539 6.11352539 C-4.09374639 4.44740634 -4.09166371 2.77969654 -4.05102539 1.11352539 C-3.05102539 0.11352539 -3.05102539 0.11352539 0 0 Z " fill="#1593CD" transform="translate(112.051025390625,67.886474609375)"/>
<path d="M0 0 C0 4.21134379 -0.63021238 5.61217396 -3.5625 8.6875 C-4.366875 9.450625 -5.17125 10.21375 -6 11 C-5.34 11.66 -4.68 12.32 -4 13 C-7.3 13 -10.6 13 -14 13 C-14 12.67 -14 12.34 -14 12 C-20.93 11.67 -27.86 11.34 -35 11 C-35 10.34 -35 9.68 -35 9 C-33.11667969 9.06960937 -33.11667969 9.06960937 -31.1953125 9.140625 C-18.73800924 9.46533849 -9.42097905 8.92513805 0 0 Z " fill="#1395CF" transform="translate(462,72)"/>
<path d="M0 0 C0.33 0 0.66 0 1 0 C0.34322094 10.07061228 -1.93748295 19.78483094 -4.0625 29.625 C-4.44385324 31.41005081 -4.82471686 33.1952063 -5.20507812 34.98046875 C-6.13107368 39.32154087 -7.06369945 43.66113936 -8 48 C-8.33 48 -8.66 48 -9 48 C-9.2236337 46.58566794 -9.42826476 45.16832382 -9.625 43.75 C-9.74101562 42.96109375 -9.85703125 42.1721875 -9.9765625 41.359375 C-10.00414217 38.58302202 -9.30300692 37.42873398 -8 35 C-5.9789569 28.82247205 -5.10649765 22.61646204 -4.23242188 16.203125 C-3.40445955 10.54919444 -1.97695061 5.36016085 0 0 Z " fill="#1C8AC5" transform="translate(22,26)"/>
<path d="M0 0 C0.33 0 0.66 0 1 0 C1 3.96 1 7.92 1 12 C1.99 11.67 2.98 11.34 4 11 C4.66 11.33 5.32 11.66 6 12 C7 15.125 7 15.125 7 19 C5.31278908 21.66754754 3.27884083 23.82684455 1 26 C0.01 25.67 -0.98 25.34 -2 25 C-1.01 23.515 -1.01 23.515 0 22 C0.99 22 1.98 22 3 22 C3.66 19.36 4.32 16.72 5 14 C4.34 14 3.68 14 3 14 C3 14.66 3 15.32 3 16 C1.35 16.33 -0.3 16.66 -2 17 C-2.21824777 10.9981863 -1.5056904 5.80766296 0 0 Z " fill="#109AD5" transform="translate(478,73)"/>
<path d="M0 0 C0.93423645 3.01031744 1.04449911 3.86650268 0 7 C5.94 7 11.88 7 18 7 C18.33 6.34 18.66 5.68 19 5 C18.814375 5.61875 18.62875 6.2375 18.4375 6.875 C17.76313824 9.04160178 17.76313824 9.04160178 19 11 C12.07 11 5.14 11 -2 11 C-1.67 10.01 -1.34 9.02 -1 8 C-1 6.80375 -1 5.6075 -1 4.375 C-1 1 -1 1 0 0 Z " fill="#1594CF" transform="translate(374,74)"/>
<path d="M0 0 C0.33 0 0.66 0 1 0 C0.40982718 6.00509181 -0.4669245 11.79685369 -1.77734375 17.68359375 C-1.94875381 18.46517349 -2.12016388 19.24675323 -2.29676819 20.05201721 C-2.65660913 21.6851965 -3.01889152 23.31783966 -3.38354492 24.94995117 C-3.94110316 27.45368009 -4.4855193 29.96004337 -5.02929688 32.46679688 C-5.38202331 34.06007075 -5.7355113 35.65317627 -6.08984375 37.24609375 C-6.25137436 37.99499374 -6.41290497 38.74389374 -6.57933044 39.51548767 C-7.770817 44.770817 -7.770817 44.770817 -10 47 C-11.36267027 42.9119892 -10.63567546 40.7589197 -8.83203125 36.9375 C-6.56625907 31.66133568 -5.95926569 26.05419524 -5.5625 20.375 C-5.19885376 15.70604199 -4.00943247 12.25999683 -2 8 C-1.22906517 5.34873631 -0.61437869 2.69381425 0 0 Z " fill="#1E8CBE" transform="translate(480,38)"/>
<path d="M0 0 C1.39846371 3.8343634 0.62855489 6.8099895 -0.21484375 10.734375 C-0.34943497 11.37240051 -0.48402618 12.01042603 -0.62269592 12.66778564 C-1.05273986 14.69704723 -1.49492585 16.72343832 -1.9375 18.75 C-2.23192567 20.1287344 -2.52555457 21.50763921 -2.81835938 22.88671875 C-3.5377278 26.2594953 -4.26784732 29.62997551 -5 33 C-11.6 33 -18.2 33 -25 33 C-24.67 31.02 -24.34 29.04 -24 27 C-23.67 27 -23.34 27 -23 27 C-23 28.65 -23 30.3 -23 32 C-17.39 32 -11.78 32 -6 32 C-5.855625 30.246875 -5.71125 28.49375 -5.5625 26.6875 C-5.30314642 23.53820647 -5.00259507 21.00778521 -4 18 C-3.77820215 16.10787263 -3.59385985 14.21115528 -3.4375 12.3125 C-3.35371094 11.31863281 -3.26992188 10.32476562 -3.18359375 9.30078125 C-3.12300781 8.54152344 -3.06242187 7.78226563 -3 7 C-2.34 7 -1.68 7 -1 7 C-0.67 4.69 -0.34 2.38 0 0 Z " fill="#1E86BA" transform="translate(62,52)"/>
<path d="M0 0 C0.33 0 0.66 0 1 0 C1.0501123 0.63091553 1.10022461 1.26183105 1.15185547 1.91186523 C1.38313719 4.75463751 1.62886933 7.59597655 1.875 10.4375 C1.95363281 11.43072266 2.03226562 12.42394531 2.11328125 13.44726562 C2.19707031 14.39150391 2.28085938 15.33574219 2.3671875 16.30859375 C2.44050293 17.18314209 2.51381836 18.05769043 2.58935547 18.95874023 C2.72486816 19.63235596 2.86038086 20.30597168 3 21 C3.66 21.33 4.32 21.66 5 22 C5 22.66 5 23.32 5 24 C1.34683329 22.75023244 0.21934164 22.32901247 -2 19 C-2.89191159 12.58610638 -1.45544924 6.22464453 0 0 Z " fill="#0A99D7" transform="translate(2,76)"/>
<path d="M0 0 C0.66 0 1.32 0 2 0 C1.85711146 1.70858216 1.71053911 3.4168564 1.5625 5.125 C1.48128906 6.07632813 1.40007812 7.02765625 1.31640625 8.0078125 C0.99784693 11.02036109 0.49802119 14.01187284 0 17 C10.89 17 21.78 17 33 17 C33 17.33 33 17.66 33 18 C21.78 18 10.56 18 -1 18 C-1.66 16.68 -2.32 15.36 -3 14 C-2.37498605 12.31727014 -1.69822617 10.65369357 -1 9 C-0.53202942 6.01102664 -0.24955807 3.01439877 0 0 Z " fill="#238BBF" transform="translate(239,64)"/>
<path d="M0 0 C0.33 1.32 0.66 2.64 1 4 C-0.21705006 5.01471171 -1.44926884 6.0112461 -2.6875 7 C-3.71423828 7.8353125 -3.71423828 7.8353125 -4.76171875 8.6875 C-7.38783056 10.22741897 -9.00603356 10.25168194 -12 10 C-10.64844718 5.57673622 -8.80109562 3.59587018 -5 1 C-2 0 -2 0 0 0 Z " fill="#0E98D6" transform="translate(210,15)"/>
<path d="M0 0 C0.33 0.66 0.66 1.32 1 2 C0.01 2.99 -0.98 3.98 -2 5 C-1.67 5.33 -1.34 5.66 -1 6 C-0.67 5.34 -0.34 4.68 0 4 C1.32 4.33 2.64 4.66 4 5 C0.37 8.3 -3.26 11.6 -7 15 C-7.33 13.68 -7.66 12.36 -8 11 C-7.01 11 -6.02 11 -5 11 C-5 10.01 -5 9.02 -5 8 C-6.65 9.32 -8.3 10.64 -10 12 C-10.66 11.67 -11.32 11.34 -12 11 C-10.37807179 9.35113941 -8.75236228 7.7059976 -7.125 6.0625 C-6.22007812 5.14597656 -5.31515625 4.22945312 -4.3828125 3.28515625 C-2 1 -2 1 0 0 Z " fill="#1892C5" transform="translate(215,23)"/>
<path d="M0 0 C5.99663333 0.30491356 9.26836992 1.33298669 14 5 C12.68 5.33 11.36 5.66 10 6 C10 5.34 10 4.68 10 4 C7.36 3.34 4.72 2.68 2 2 C-0.25496388 8.93025566 -1.83760783 15.80684375 -3 23 C-3.66 23 -4.32 23 -5 23 C-1.9403255 1.9403255 -1.9403255 1.9403255 0 0 Z " fill="#1D91C5" transform="translate(158,41)"/>
<path d="M0 0 C0.66 0 1.32 0 2 0 C2 0.66 2 1.32 2 2 C2.99 2 3.98 2 5 2 C5 2.99 5 3.98 5 5 C5.99 5 6.98 5 8 5 C8 4.01 8 3.02 8 2 C10.20449433 3.02351522 12.03843541 4.0309963 13.9375 5.5625 C16.29598047 7.20628942 18.17748429 7.60798393 21 8 C21 8.33 21 8.66 21 9 C19.02 9.33 17.04 9.66 15 10 C15 10.66 15 11.32 15 12 C13.68 12 12.36 12 11 12 C10.67 10.02 10.34 8.04 10 6 C8.02 6.99 8.02 6.99 6 8 C4.9970458 6.85675161 3.99770973 5.71032809 3 4.5625 C2.443125 3.92441406 1.88625 3.28632812 1.3125 2.62890625 C0 1 0 1 0 0 Z " fill="#1696CF" transform="translate(193,82)"/>
<path d="M0 0 C0.66 0.33 1.32 0.66 2 1 C1.29244778 9.15924147 -0.36212501 17.0604471 -2.0625 25.0625 C-2.34739292 26.4185384 -2.63190109 27.77465768 -2.91601562 29.13085938 C-3.6069091 32.42138594 -4.30166695 35.71104574 -5 39 C-5.33 39 -5.66 39 -6 39 C-6.02689216 37.52093108 -6.04634621 36.04172517 -6.0625 34.5625 C-6.07990234 33.32693359 -6.07990234 33.32693359 -6.09765625 32.06640625 C-6 30 -6 30 -5 29 C-4.71421971 26.55045463 -4.55198281 24.1005217 -4.37890625 21.640625 C-4 19 -4 19 -3.03515625 16.62890625 C-1.73864298 13.3362518 -1.33355596 10.19217769 -0.875 6.6875 C-0.62363281 4.80611328 -0.62363281 4.80611328 -0.3671875 2.88671875 C-0.24601562 1.93410156 -0.12484375 0.98148438 0 0 Z " fill="#198AC3" transform="translate(491,51)"/>
<path d="M0 0 C0.33 0 0.66 0 1 0 C1 2.31 1 4.62 1 7 C1.99 6.34 2.98 5.68 4 5 C4 5.99 4 6.98 4 8 C4.99 8 5.98 8 7 8 C7 7.01 7 6.02 7 5 C8.32 5.33 9.64 5.66 11 6 C3.6 12 3.6 12 -1 12 C-3.01623639 10.21722256 -4.37344618 8.16873843 -6 6 C-3.525 6.495 -3.525 6.495 -1 7 C-0.67 4.69 -0.34 2.38 0 0 Z " fill="#1B94C9" transform="translate(180,28)"/>
<path d="M0 0 C0.66 0.33 1.32 0.66 2 1 C-0.64 13.87 -3.28 26.74 -6 40 C-6.33 40 -6.66 40 -7 40 C-7 36.04 -7 32.08 -7 28 C-6.34 28 -5.68 28 -5 28 C-4.87753906 26.8965625 -4.75507813 25.793125 -4.62890625 24.65625 C-3.99067194 19.55037555 -2.97359574 14.53769521 -1.9375 9.5 C-1.75123047 8.5821875 -1.56496094 7.664375 -1.37304688 6.71875 C-0.91801873 4.47861146 -0.46028733 2.23906274 0 0 Z " fill="#1E8CBD" transform="translate(500,12)"/>
<path d="M0 0 C0.33 0 0.66 0 1 0 C1.33 2.97 1.66 5.94 2 9 C4.31 9 6.62 9 9 9 C9 8.01 9 7.02 9 6 C10.32 6 11.64 6 13 6 C13 5.34 13 4.68 13 4 C14.65 4 16.3 4 18 4 C14.29932969 8.26137794 11.55064983 9.94729055 6 11 C3.66784156 11.07403678 1.33139212 11.09515886 -1 11 C-0.67 7.37 -0.34 3.74 0 0 Z " fill="#1394CD" transform="translate(263,56)"/>
<path d="M0 0 C3.50293676 4.31717872 6.85170719 8.74111755 10.1875 13.1875 C10.73341797 13.91130859 11.27933594 14.63511719 11.84179688 15.38085938 C12.36193359 16.07373047 12.88207031 16.76660156 13.41796875 17.48046875 C13.89000732 18.10848389 14.3620459 18.73649902 14.84838867 19.38354492 C16 21 16 21 17 23 C13.20620942 21.50958227 11.31656242 19.30937488 9 16 C9 15.34 9 14.68 9 14 C8.01 13.67 7.02 13.34 6 13 C3 11 3 11 2.4375 8.4375 C2.293125 7.633125 2.14875 6.82875 2 6 C1.34 5.67 0.68 5.34 0 5 C-0.33 5.66 -0.66 6.32 -1 7 C-0.67 4.69 -0.34 2.38 0 0 Z " fill="#1492C7" transform="translate(183,59)"/>
<path d="M0 0 C0.99 0.495 0.99 0.495 2 1 C2 1.66 2 2.32 2 3 C2.66 3 3.32 3 4 3 C4.08115993 6.06303578 4.14057409 9.12390815 4.1875 12.1875 C4.21263672 13.05181641 4.23777344 13.91613281 4.26367188 14.80664062 C4.32026662 19.73038334 4.18027571 22.96831189 1 27 C-0.35518675 24.2896265 0.40546781 22.96451669 1 20 C1.0923411 17.50135852 1.13000068 15.0003422 1.125 12.5 C1.12886719 10.56640625 1.12886719 10.56640625 1.1328125 8.59375 C1.02135753 5.57790967 0.70804225 2.92207912 0 0 Z " fill="#1B91C3" transform="translate(305,28)"/>
<path d="M0 0 C0 0.66 0 1.32 0 2 C-1.03898437 2.09796875 -2.07796875 2.1959375 -3.1484375 2.296875 C-11.32944579 3.14677341 -18.53194197 4.30187511 -26 8 C-25.67 6.68 -25.34 5.36 -25 4 C-24.41089844 3.86722656 -23.82179688 3.73445313 -23.21484375 3.59765625 C-20.74047981 2.99426129 -20.74047981 2.99426129 -17.5625 1.4375 C-11.89582429 -0.7775573 -5.98311784 -0.24625637 0 0 Z " fill="#1F94C9" transform="translate(452,31)"/>
<path d="M0 0 C0.33 0 0.66 0 1 0 C1 3.3 1 6.6 1 10 C2.65 10 4.3 10 6 10 C4.75 12.9375 4.75 12.9375 3 16 C0.8125 16.875 0.8125 16.875 -1 17 C-2.13253652 10.77104914 -1.70366626 6.08251096 0 0 Z " fill="#1393D0" transform="translate(416,33)"/>
<path d="M0 0 C6.6 0 13.2 0 20 0 C20 0.33 20 0.66 20 1 C17.03 1 14.06 1 11 1 C11 1.66 11 2.32 11 3 C11.66 3.33 12.32 3.66 13 4 C9.87819599 4.96661363 7.47916205 4.98988909 4.25 4.5625 C3.05117188 4.40974609 3.05117188 4.40974609 1.828125 4.25390625 C1.22484375 4.17011719 0.6215625 4.08632812 0 4 C0 2.66666667 0 1.33333333 0 0 Z " fill="#19A4EE" transform="translate(351,11)"/>
<path d="M0 0 C0.66 0 1.32 0 2 0 C2 2.66666667 2 5.33333333 2 8 C3.43750191 9.68798827 3.43750191 9.68798827 5 11 C4.67 11.99 4.34 12.98 4 14 C3.401875 13.0925 2.80375 12.185 2.1875 11.25 C-1.44754564 6.79072889 -6.65864086 5.59024703 -12 4 C-12 3.67 -12 3.34 -12 3 C-5.375 2.875 -5.375 2.875 -2 4 C-2 3.34 -2 2.68 -2 2 C-1.34 1.34 -0.68 0.68 0 0 Z " fill="#1395CD" transform="translate(300,14)"/>
<path d="M0 0 C9.42307692 7.26923077 9.42307692 7.26923077 11 12 C10.34 12 9.68 12 9 12 C8.34 11.01 7.68 10.02 7 9 C6.67 9.66 6.34 10.32 6 11 C6.66 11.33 7.32 11.66 8 12 C8 12.66 8 13.32 8 14 C6.0625 13.3125 6.0625 13.3125 4 12 C3.61781233 10.34385343 3.28604898 8.67542976 3 7 C2.484375 6.484375 1.96875 5.96875 1.4375 5.4375 C0.963125 4.963125 0.48875 4.48875 0 4 C0 2.68 0 1.36 0 0 Z " fill="#1693C9" transform="translate(204,71)"/>
<path d="M0 0 C1.15837573 3.47512718 0.77265943 5.13670286 0.0625 8.6875 C-0.13214844 9.68136719 -0.32679688 10.67523438 -0.52734375 11.69921875 C-0.68332031 12.45847656 -0.83929688 13.21773437 -1 14 C-1.33 12.68 -1.66 11.36 -2 10 C-3.32 10 -4.64 10 -6 10 C-6 8.35 -6 6.7 -6 5 C-5.34 5 -4.68 5 -4 5 C-4 4.01 -4 3.02 -4 2 C-2.68 2 -1.36 2 0 2 C0 1.34 0 0.68 0 0 Z " fill="#1095D6" transform="translate(381,36)"/>
<path d="M0 0 C0.80244141 0.04833984 1.60488281 0.09667969 2.43164062 0.14648438 C3.68170898 0.2305957 3.68170898 0.2305957 4.95703125 0.31640625 C6.22450195 0.3947168 6.22450195 0.3947168 7.51757812 0.47460938 C9.60189424 0.60414314 11.68576307 0.74083802 13.76953125 0.87890625 C14.09953125 1.53890625 14.42953125 2.19890625 14.76953125 2.87890625 C7.50953125 2.87890625 0.24953125 2.87890625 -7.23046875 2.87890625 C-7.23046875 2.21890625 -7.23046875 1.55890625 -7.23046875 0.87890625 C-4.35516794 -0.07952735 -2.93996944 -0.18765762 0 0 Z " fill="#029FE3" transform="translate(326.23046875,12.12109375)"/>
<path d="M0 0 C1.65 0 3.3 0 5 0 C5.33 0.66 5.66 1.32 6 2 C5.01 2.33 4.02 2.66 3 3 C3.33 3.99 3.66 4.98 4 6 C3.67 6.66 3.34 7.32 3 8 C2.34 8 1.68 8 1 8 C1 9.32 1 10.64 1 12 C0.01 12 -0.98 12 -2 12 C-2 10.35 -2 8.7 -2 7 C-1.34 7 -0.68 7 0 7 C0 4.69 0 2.38 0 0 Z " fill="#039EE2" transform="translate(339,33)"/>
<path d="M0 0 C0.66 0 1.32 0 2 0 C1.73701637 3.7694321 1.16190154 5.77431907 -1.0625 8.875 C-5.04218427 11.75392054 -7.18430485 11.40810976 -12 11 C-12.33 10.34 -12.66 9.68 -13 9 C-10.69 9 -8.38 9 -6 9 C-5.67 7.68 -5.34 6.36 -5 5 C-3.68 5.33 -2.36 5.66 -1 6 C-1.020625 5.195625 -1.04125 4.39125 -1.0625 3.5625 C-1 1 -1 1 0 0 Z " fill="#1594CB" transform="translate(448,59)"/>
<path d="M0 0 C0 0.66 0 1.32 0 2 C0.66 2.66 1.32 3.32 2 4 C-0.31 5.65 -2.62 7.3 -5 9 C-5.33 7.68 -5.66 6.36 -6 5 C-7.32 5.99 -8.64 6.98 -10 8 C-10.66 7.67 -11.32 7.34 -12 7 C-10.3790787 5.82767315 -8.75313167 4.6622923 -7.125 3.5 C-6.22007812 2.8503125 -5.31515625 2.200625 -4.3828125 1.53125 C-2 0 -2 0 0 0 Z " fill="#1695C8" transform="translate(228,15)"/>
<path d="M0 0 C0.33 1.32 0.66 2.64 1 4 C2.32 3.67 3.64 3.34 5 3 C5 8.94 5 14.88 5 21 C4.67 21 4.34 21 4 21 C3.99742187 20.2265625 3.99484375 19.453125 3.9921875 18.65625 C3.70780356 10.99684251 2.33898415 6.55123735 -3 1 C-2.01 0.67 -1.02 0.34 0 0 Z " fill="#0A98DC" transform="translate(466,36)"/>
<path d="M0 0 C0.33 1.65 0.66 3.3 1 5 C0.01 5.66 -0.98 6.32 -2 7 C-2.56203125 6.68289062 -3.1240625 6.36578125 -3.703125 6.0390625 C-6.15196317 4.93125475 -8.08387855 4.61024601 -10.75 4.375 C-11.94882812 4.26285156 -11.94882812 4.26285156 -13.171875 4.1484375 C-13.77515625 4.09945312 -14.3784375 4.05046875 -15 4 C-15 3.67 -15 3.34 -15 3 C-14.31292969 2.86722656 -13.62585938 2.73445313 -12.91796875 2.59765625 C-11.56638672 2.33275391 -11.56638672 2.33275391 -10.1875 2.0625 C-8.84751953 1.80146484 -8.84751953 1.80146484 -7.48046875 1.53515625 C-0.3649635 0 -0.3649635 0 0 0 Z " fill="#1098D2" transform="translate(363,57)"/>
<path d="M0 0 C1.01498547 3.17459631 0.94466465 5.30877671 0.22265625 8.546875 C0.03896484 9.39121094 -0.14472656 10.23554687 -0.33398438 11.10546875 C-0.53314453 11.97816406 -0.73230469 12.85085937 -0.9375 13.75 C-1.13279297 14.63816406 -1.32808594 15.52632812 -1.52929688 16.44140625 C-2.01161712 18.62949322 -2.50209032 20.8154173 -3 23 C-3.33 23 -3.66 23 -4 23 C-4.2236337 21.58566794 -4.42826476 20.16832382 -4.625 18.75 C-4.74101562 17.96109375 -4.85703125 17.1721875 -4.9765625 16.359375 C-5.00367369 13.63018199 -4.3288584 12.34812614 -3 10 C-2.30643577 7.67451993 -1.63850788 5.34119555 -1 3 C-0.67 2.01 -0.34 1.02 0 0 Z " fill="#137FC5" transform="translate(17,51)"/>
<path d="M0 0 C-0.66 1.65 -1.32 3.3 -2 5 C-3.65 4.67 -5.3 4.34 -7 4 C-7 4.99 -7 5.98 -7 7 C-7.99 7 -8.98 7 -10 7 C-9.60856977 4.72970466 -9.11258722 3.16591802 -7.8125 1.25 C-5.21312784 -0.54267046 -3.07660784 -0.20510719 0 0 Z " fill="#0B99D8" transform="translate(194,29)"/>
<path d="M0 0 C2.18877914 2.183759 2.94198366 3.48945625 3.29296875 6.578125 C3.25816406 7.45984375 3.22335937 8.3415625 3.1875 9.25 C3.16042969 10.14203125 3.13335937 11.0340625 3.10546875 11.953125 C3.07066406 12.62859375 3.03585937 13.3040625 3 14 C2.67 14 2.34 14 2 14 C1.67 10.37 1.34 6.74 1 3 C-0.423125 3 -1.84625 3 -3.3125 3 C-5.875 3 -8.4375 3 -11 3 C-7.50688546 -0.35338996 -4.73886985 -0.60312889 0 0 Z " fill="#258AB8" transform="translate(448,45)"/>
<path d="M0 0 C6.27 0 12.54 0 19 0 C18.34 3.96 17.68 7.92 17 12 C16.67 12 16.34 12 16 12 C16 8.37 16 4.74 16 1 C10.72 1 5.44 1 0 1 C0 0.67 0 0.34 0 0 Z " fill="#1580B5" transform="translate(47,40)"/>
<path d="M0 0 C1.98 1.65 3.96 3.3 6 5 C4.68 5.99 3.36 6.98 2 8 C0 6.6875 0 6.6875 -2 5 C-2 4.01 -2 3.02 -2 2 C-1.34 2 -0.68 2 0 2 C0 1.34 0 0.68 0 0 Z " fill="#0C99D9" transform="translate(172,47)"/>
<path d="M0 0 C0.33 0 0.66 0 1 0 C1.19627391 1.58226965 1.38165538 3.16589271 1.5625 4.75 C1.66691406 5.63171875 1.77132812 6.5134375 1.87890625 7.421875 C1.99456676 9.88432451 1.73638695 11.66538064 1 14 C0.34 14 -0.32 14 -1 14 C-1.33 14.99 -1.66 15.98 -2 17 C-1.03644647 5.47835991 -1.03644647 5.47835991 0 0 Z " fill="#1995CC" transform="translate(220,67)"/>
<path d="M0 0 C2.22111286 0.38295049 3.80380283 0.86920188 5.6875 2.125 C8.42603604 6.03719434 8.07067737 10.36390367 7.5625 14.9375 C7.376875 15.948125 7.19125 16.95875 7 18 C6.67 18 6.34 18 6 18 C6 13.71 6 9.42 6 5 C4.68 5 3.36 5 2 5 C2 3.68 2 2.36 2 1 C1.34 0.67 0.68 0.34 0 0 Z " fill="#198FC0" transform="translate(279,32)"/>
<path d="M0 0 C0 3 0 3 -2 6 C-1.34 6.33 -0.68 6.66 0 7 C-2.75078884 7.91692961 -4.35948913 8.10886083 -7.1875 8.0625 C-9.0746875 8.0315625 -9.0746875 8.0315625 -11 8 C-7.38813161 5.25498003 -3.69604737 2.62987986 0 0 Z " fill="#1594C9" transform="translate(296,70)"/>
<path d="M0 0 C0.66523639 3.74195471 1 7.20436828 1 11 C0.01 11.33 -0.98 11.66 -2 12 C-3.17571451 8.32589215 -3.07366746 4.83070817 -3 1 C-1 0 -1 0 0 0 Z " fill="#02A0EB" transform="translate(438,55)"/>
<path d="M0 0 C4.95 0.99 4.95 0.99 10 2 C10 2.33 10 2.66 10 3 C8.02 3.33 6.04 3.66 4 4 C4 4.66 4 5.32 4 6 C2.68 6 1.36 6 0 6 C0 4.02 0 2.04 0 0 Z " fill="#0C9AD4" transform="translate(204,88)"/>
<path d="M0 0 C0.33 0 0.66 0 1 0 C1.33 3.63 1.66 7.26 2 11 C0.02 11.99 0.02 11.99 -2 13 C-1.34 8.71 -0.68 4.42 0 0 Z " fill="#1394CE" transform="translate(2,76)"/>
<path d="M0 0 C0.99 0.33 1.98 0.66 3 1 C3 1.99 3 2.98 3 4 C1.68 4 0.36 4 -1 4 C-1.66 5.32 -2.32 6.64 -3 8 C-3.33 7.01 -3.66 6.02 -4 5 C-3.34 4.01 -2.68 3.02 -2 2 C-1.34 2 -0.68 2 0 2 C0 1.34 0 0.68 0 0 Z " fill="#059EE3" transform="translate(216,23)"/>
<path d="M0 0 C1.32 0 2.64 0 4 0 C4 1.32 4 2.64 4 4 C4.66 4 5.32 4 6 4 C5.67 5.32 5.34 6.64 5 8 C4.67 7.01 4.34 6.02 4 5 C3.01 4.67 2.02 4.34 1 4 C0.3125 1.9375 0.3125 1.9375 0 0 Z " fill="#049EE0" transform="translate(197,63)"/>
<path d="M0 0 C0 0.99 0 1.98 0 3 C-0.99 3 -1.98 3 -3 3 C-3 4.32 -3 5.64 -3 7 C-4.32 7 -5.64 7 -7 7 C-7 6.01 -7 5.02 -7 4 C-2.65714286 0 -2.65714286 0 0 0 Z " fill="#059EE3" transform="translate(210,31)"/>
<path d="M0 0 C0.66 1.32 1.32 2.64 2 4 C1.34 4 0.68 4 0 4 C-0.33 4.66 -0.66 5.32 -1 6 C-1.66 6 -2.32 6 -3 6 C-3.33 6.66 -3.66 7.32 -4 8 C-4.33 7.34 -4.66 6.68 -5 6 C-2.59016393 1.29508197 -2.59016393 1.29508197 0 0 Z " fill="#0C98D6" transform="translate(25,0)"/>
<path d="M0 0 C0.33 0 0.66 0 1 0 C1.02578125 0.62648437 1.0515625 1.25296875 1.078125 1.8984375 C1.13484375 2.71570312 1.1915625 3.53296875 1.25 4.375 C1.29640625 5.18710937 1.3428125 5.99921875 1.390625 6.8359375 C1.7922092 9.18838927 1.7922092 9.18838927 4.046875 10.2890625 C4.69140625 10.52367188 5.3359375 10.75828125 6 11 C3.69 11 1.38 11 -1 11 C-0.67 7.37 -0.34 3.74 0 0 Z " fill="#2289B9" transform="translate(263,56)"/>
<path d="M0 0 C4.87664009 -0.34833144 7.77050005 0.58314288 12 3 C12 3.66 12 4.32 12 5 C6.06 3.515 6.06 3.515 0 2 C0 1.34 0 0.68 0 0 Z " fill="#1E8BC3" transform="translate(160,28)"/>
<path d="M0 0 C1.98 0 3.96 0 6 0 C2.87567603 2.52349243 -0.38060496 4.27256146 -4 6 C-4 5.34 -4 4.68 -4 4 C-3.34 4 -2.68 4 -2 4 C-1.34 2.68 -0.68 1.36 0 0 Z " fill="#1A91C7" transform="translate(219,9)"/>
<path d="M0 0 C2.97 1.65 5.94 3.3 9 5 C5.16380575 5.95904856 3.67568464 5.91892116 0 5 C0 3.35 0 1.7 0 0 Z " fill="#1791C9" transform="translate(418,75)"/>
<path d="M0 0 C0 3 0 3 -2 5.1875 C-2.66 5.785625 -3.32 6.38375 -4 7 C-4.99 6.67 -5.98 6.34 -7 6 C-6.34 5.01 -5.68 4.02 -5 3 C-4.01 3 -3.02 3 -2 3 C-2 2.34 -2 1.68 -2 1 C-1.34 0.67 -0.68 0.34 0 0 Z " fill="#1D8EBF" transform="translate(483,92)"/>
<path d="M0 0 C0.33 0 0.66 0 1 0 C1.05399736 1.45792884 1.09279177 2.91642712 1.125 4.375 C1.14820313 5.18710938 1.17140625 5.99921875 1.1953125 6.8359375 C1 9 1 9 -1 11 C-2.26264601 6.70700357 -1.62950412 4.12168689 0 0 Z " fill="#1596CB" transform="translate(471,74)"/>
<path d="M0 0 C0.33 0.66 0.66 1.32 1 2 C3.02463255 2.65213292 3.02463255 2.65213292 5 3 C5 4.65 5 6.3 5 8 C2.5 5.6875 2.5 5.6875 0 3 C0 2.01 0 1.02 0 0 Z " fill="#1790CD" transform="translate(180,65)"/>
<path d="M0 0 C0.33 0 0.66 0 1 0 C0.25 6.75 0.25 6.75 -2 9 C-2.33 7.02 -2.66 5.04 -3 3 C-2.01 2.67 -1.02 2.34 0 2 C0 1.34 0 0.68 0 0 Z " fill="#1198D1" transform="translate(173,62)"/>
<path d="M0 0 C1.41377341 2.63904371 2.37240135 5.07120629 3 8 C-1.875 3.25 -1.875 3.25 -3 1 C-2.01 0.67 -1.02 0.34 0 0 Z " fill="#1592C9" transform="translate(466,36)"/>
<path d="M0 0 C6.625 -0.25 6.625 -0.25 10 2 C10 2.66 10 3.32 10 4 C6.7 3.01 3.4 2.02 0 1 C0 0.67 0 0.34 0 0 Z " fill="#1A8ECD" transform="translate(453,33)"/>
<path d="M0 0 C2.5 1.8125 2.5 1.8125 5 4 C5 4.99 5 5.98 5 7 C3.68 6.67 2.36 6.34 1 6 C0.67 4.02 0.34 2.04 0 0 Z " fill="#05A0DF" transform="translate(204,71)"/>
<path d="M0 0 C0.33 0 0.66 0 1 0 C0.75 3.375 0.75 3.375 0 7 C-2.0625 8.4375 -2.0625 8.4375 -4 9 C-2.80100302 5.9168649 -1.52299523 2.93720508 0 0 Z " fill="#208EC0" transform="translate(467,63)"/>
</svg>
