<?xml version="1.0" encoding="UTF-8"?>
<svg version="1.1" xmlns="http://www.w3.org/2000/svg" width="279" height="47">
<path d="M0 0 C92.07 0 184.14 0 279 0 C279 15.51 279 31.02 279 47 C186.93 47 94.86 47 0 47 C0 31.49 0 15.98 0 0 Z " fill="#F5FBFD" transform="translate(0,0)"/>
<path d="M0 0 C56.76 0 113.52 0 172 0 C172 11.22 172 22.44 172 34 C135.04 34 98.08 34 60 34 C60 33.67 60 33.34 60 33 C64.62 33 69.24 33 74 33 C74 25.74 74 18.48 74 11 C72.02 11 70.04 11 68 11 C68 10.67 68 10.34 68 10 C70.31 10 72.62 10 75 10 C75 17.26 75 24.52 75 32 C77.97 32 80.94 32 84 32 C84 24.41 84 16.82 84 9 C86.64 9 89.28 9 92 9 C92 6.69 92 4.38 92 2 C87.46509185 1.97506817 82.93022461 1.95703143 78.39526367 1.94506836 C76.85619409 1.94007504 75.31712916 1.93327806 73.77807617 1.92456055 C65.79274406 1.88049997 57.92367363 1.85516888 50 3 C49.61328125 4.0621875 49.2265625 5.124375 48.828125 6.21875 C43.15727234 21.66529846 43.15727234 21.66529846 40 27 C39.01 27.33 38.02 27.66 37 28 C37 19.42 37 10.84 37 2 C33.37 2 29.74 2 26 2 C25.54625 3.711875 25.0925 5.42375 24.625 7.1875 C23.63721296 10.91415112 22.49480306 14.44496838 21 18 C20.34 18 19.68 18 19 18 C18.16280617 15.70967689 17.3301071 13.41789043 16.5 11.125 C16.26152344 10.47402344 16.02304688 9.82304687 15.77734375 9.15234375 C14 4.2265625 14 4.2265625 14 2 C10.37 2 6.74 2 3 2 C3 12.23 3 22.46 3 33 C5.64 33 8.28 33 11 33 C11 33.33 11 33.66 11 34 C7.7 34 4.4 34 1 34 C0.67 22.78 0.34 11.56 0 0 Z " fill="#25ACE6" transform="translate(100,6)"/>
<path d="M0 0 C92.07 0 184.14 0 279 0 C279 15.51 279 31.02 279 47 C186.93 47 94.86 47 0 47 C0 31.49 0 15.98 0 0 Z M5 6 C4.81257462 8.62960627 4.74430647 11.15193335 4.76953125 13.78125 C4.76998947 14.55053833 4.77044769 15.31982666 4.7709198 16.11242676 C4.77394247 17.73984315 4.78182926 19.36725664 4.79418945 20.99462891 C4.81242701 23.49001277 4.81469927 25.98502525 4.81445312 28.48046875 C4.81936907 30.05989905 4.82519772 31.63932683 4.83203125 33.21875 C4.83314407 33.9677356 4.8342569 34.71672119 4.83540344 35.48840332 C4.79928862 39.3721195 4.79928862 39.3721195 6 43 C34.38 43 62.76 43 92 43 C90.04788267 39.09576534 88.68170177 37.61408528 85.4375 34.875 C81.09722222 31.19444444 81.09722222 31.19444444 80 29 C79.34 29 78.68 29 78 29 C78 32.63 78 36.26 78 40 C74.7 40 71.4 40 68 40 C68 33.4 68 26.8 68 20 C78.13374806 24.50388802 78.13374806 24.50388802 81.125 27.75 C82.09566406 28.78447266 82.09566406 28.78447266 83.0859375 29.83984375 C85.54267582 32.61244842 87.98380493 35.39566949 90.359375 38.23828125 C93.23985663 41.33136986 94.93311634 42.87963841 99.27208328 43.36914349 C101.23550234 43.36499542 101.23550234 43.36499542 103.23858643 43.36076355 C104.33402146 43.36460846 104.33402146 43.36460846 105.45158648 43.36853105 C107.89926386 43.37347347 110.34632474 43.35696892 112.79394531 43.34057617 C114.54820745 43.33973 116.30247066 43.34020485 118.05673218 43.34190369 C122.82089904 43.34276544 127.58483992 43.32511054 132.3489542 43.30418181 C137.3270866 43.28544502 142.30522401 43.28366694 147.28338623 43.28010559 C156.71103355 43.27077631 166.13857667 43.24615057 175.56617808 43.21605712 C186.29882101 43.18254059 197.03146888 43.16603401 207.7641511 43.15097082 C229.84282558 43.1196018 251.92140623 43.06682413 274 43 C274.02464849 37.60653012 274.04283531 32.21309275 274.05493164 26.81958008 C274.05997231 24.98331125 274.06680477 23.14704646 274.07543945 21.31079102 C274.08751672 18.67723599 274.09323081 16.04373384 274.09765625 13.41015625 C274.10281754 12.58411392 274.10797882 11.75807159 274.11329651 10.90699768 C274.11349205 8.93763632 274.06204152 6.96838386 274 5 C272.10309076 3.10309076 268.76005554 3.83185052 266.2408905 3.8057251 C265.1681259 3.79280162 265.1681259 3.79280162 264.07368928 3.77961707 C261.65877091 3.75204645 259.24384968 3.73190133 256.82885742 3.71191406 C255.10435703 3.69420078 253.37985957 3.67619885 251.65536499 3.65792847 C235.87268706 3.4985488 220.0891239 3.41449465 204.30581188 3.34793472 C192.64119513 3.29775505 180.97799007 3.21194887 169.31401366 3.07931352 C161.11177967 2.98919316 152.90993175 2.94146637 144.70722467 2.92435622 C139.80999155 2.91291105 134.91456105 2.88275203 130.01787376 2.80640411 C125.40186417 2.73521211 120.78853754 2.71681547 116.17205429 2.73752213 C114.48539431 2.7361018 112.79862219 2.71609015 111.11245537 2.67528152 C103.16008469 2.49283893 96.91797804 2.50467793 90.66629344 7.87710357 C88.30125799 10.14622853 86.14667243 12.52158596 84 15 C82.2991972 16.85834122 82.2991972 16.85834122 81 18 C78.30000869 17.82000058 76.80249149 16.87655718 74.5 15.4375 C71.9026988 13.66768592 71.9026988 13.66768592 68 14 C68 11.36 68 8.72 68 6 C71.3 6 74.6 6 78 6 C78 9.63 78 13.26 78 17 C79.68146602 15.55393923 81.36275525 14.10767216 83.04296875 12.66015625 C84.81640213 11.1557467 86.62132079 9.70207646 88.4375 8.25 C89.283125 7.5075 90.12875 6.765 91 6 C91 5.34 91 4.68 91 4 C80.08231971 3.95372931 69.16466262 3.91815767 58.24690437 3.89637566 C53.17775137 3.8859232 48.10866527 3.87173743 43.03955078 3.84912109 C38.15070815 3.82744472 33.26193002 3.8154424 28.37304306 3.81024551 C26.50465758 3.80654037 24.63627577 3.79930551 22.76791763 3.78853989 C20.15786261 3.77409406 17.54807663 3.77201914 14.93798828 3.77294922 C13.77058105 3.76216339 13.77058105 3.76216339 12.57958984 3.75115967 C8.32884013 3.61446706 8.32884013 3.61446706 5 6 Z " fill="#10A4E4" transform="translate(0,0)"/>
<path d="M0 0 C0.99 0.33 1.98 0.66 3 1 C3 11.56 3 22.12 3 33 C3.99 32.505 3.99 32.505 5 32 C5 21.77 5 11.54 5 1 C8.63 1 12.26 1 16 1 C16.8394882 3.10171867 17.67139656 5.20646625 18.5 7.3125 C18.9640625 8.48425781 19.428125 9.65601563 19.90625 10.86328125 C21 14 21 14 21 17 C21.66 17 22.32 17 23 17 C23.18369141 15.94232422 23.18369141 15.94232422 23.37109375 14.86328125 C24.03405201 11.84496817 24.98175575 9.08110558 26.0625 6.1875 C26.42472656 5.21167969 26.78695312 4.23585938 27.16015625 3.23046875 C27.43730469 2.49441406 27.71445313 1.75835937 28 1 C31.63 1 35.26 1 39 1 C39.495 12.88 39.495 12.88 40 25 C40.66 25 41.32 25 42 25 C42.47179687 23.76636719 42.47179687 23.76636719 42.953125 22.5078125 C45.0334918 17.08131357 47.1186577 11.65671392 49.25 6.25 C49.72179687 5.05117187 49.72179687 5.05117187 50.203125 3.828125 C51 2 51 2 52 1 C60.65586266 -0.46037459 69.33324351 0.11004793 78.0625 0.4375 C79.61130777 0.49082891 81.16013596 0.5435682 82.70898438 0.59570312 C86.4729262 0.72366959 90.23650151 0.85962084 94 1 C94 3.31 94 5.62 94 8 C91.36 8 88.72 8 86 8 C86 15.59 86 23.18 86 31 C83.03 31 80.06 31 77 31 C77 23.74 77 16.48 77 9 C76.67 9.33 76.34 9.66 76 10 C76 17.26 76 24.52 76 32 C124.51 32.495 124.51 32.495 174 33 C174 33.33 174 33.66 174 34 C151.48618041 34.23382923 128.97256166 34.41005453 106.45777321 34.51812172 C96.00317363 34.56963816 85.54932947 34.63984433 75.09521484 34.75439453 C65.98101104 34.85421496 56.86735441 34.91861678 47.75261915 34.94088495 C42.92818722 34.95389805 38.1053203 34.98437311 33.28139114 35.05730057 C28.73532405 35.12546688 24.19145762 35.1460603 19.64492798 35.13107681 C17.98162219 35.13381538 16.31823857 35.15354275 14.65537643 35.19205475 C2.13862022 35.46758685 2.13862022 35.46758685 -3.18248367 31.816082 C-5.70751769 29.33069943 -7.88340403 26.83645268 -10 24 C-10.50090338 23.39125345 -11.00180676 22.7825069 -11.51788902 22.15531349 C-13.00740805 20.20643382 -14.03184147 18.72598541 -13.921875 16.21875 C-12.52121291 12.84766497 -10.05195958 10.47517252 -7.5625 7.875 C-7.05912109 7.33746094 -6.55574219 6.79992187 -6.03710938 6.24609375 C-4.05395056 4.13388476 -2.04872079 2.04872079 0 0 Z " fill="#0FA3E4" transform="translate(98,7)"/>
<path d="M0 0 C3.63 0 7.26 0 11 0 C11.8394882 2.10171867 12.67139656 4.20646625 13.5 6.3125 C13.9640625 7.48425781 14.428125 8.65601563 14.90625 9.86328125 C16 13 16 13 16 16 C16.66 16 17.32 16 18 16 C18.12246094 15.29488281 18.24492188 14.58976562 18.37109375 13.86328125 C19.03405201 10.84496817 19.98175575 8.08110558 21.0625 5.1875 C21.42472656 4.21167969 21.78695312 3.23585938 22.16015625 2.23046875 C22.43730469 1.49441406 22.71445313 0.75835937 23 0 C26.63 0 30.26 0 34 0 C34 9.9 34 19.8 34 30 C31.36 30 28.72 30 26 30 C25.67 24.72 25.34 19.44 25 14 C23.02 19.28 21.04 24.56 19 30 C17.68 30 16.36 30 15 30 C13.02 24.72 11.04 19.44 9 14 C8.67 19.28 8.34 24.56 8 30 C5.36 30 2.72 30 0 30 C0 20.1 0 10.2 0 0 Z " fill="#EBF7FC" transform="translate(103,8)"/>
<path d="M0 0 C3.83084349 2.61193874 6.65161815 5.67823629 8.75 9.875 C9.31350726 14.49391196 9.1922879 17.97341312 7.125 22.1875 C2.9967402 26.85895188 -1.22187096 29.51874952 -7.4375 30.25 C-12.40683025 29.76121342 -15.46905742 28.0768793 -19.25 24.875 C-22.59089207 20.49007916 -22.87731791 15.94151819 -22.73828125 10.5703125 C-21.95033823 6.22086705 -19.66953292 3.56513713 -16.25 0.875 C-11.07567296 -2.24635518 -5.58715935 -1.9340167 0 0 Z " fill="#F2F9FD" transform="translate(229.25,9.125)"/>
<path d="M0 0 C1.05703125 0.00322266 2.1140625 0.00644531 3.203125 0.00976562 C4.81960937 0.02233398 4.81960937 0.02233398 6.46875 0.03515625 C8.13164062 0.04192383 8.13164062 0.04192383 9.828125 0.04882812 C12.54172399 0.06052467 15.25520761 0.07691539 17.96875 0.09765625 C17.96875 0.42765625 17.96875 0.75765625 17.96875 1.09765625 C17.31648438 1.1234375 16.66421875 1.14921875 15.9921875 1.17578125 C9.32076116 1.60873517 4.99355752 2.76964607 0.33203125 7.8984375 C-2.18371793 11.95679506 -1.50630726 16.48759358 -1.03125 21.09765625 C0.22633177 25.16630317 1.71686331 27.19839725 5.21875 29.47265625 C8.94042394 31.3295921 11.79523725 31.68341242 15.96875 31.09765625 C20.33364862 29.63722025 23.30357818 27.83105082 26.40625 24.41015625 C28.34963458 20.29018094 28.76827623 16.60831602 28.96875 12.09765625 C29.62875 12.09765625 30.28875 12.09765625 30.96875 12.09765625 C30.96875 8.79765625 30.96875 5.49765625 30.96875 2.09765625 C31.29875 2.09765625 31.62875 2.09765625 31.96875 2.09765625 C32.46375 16.45265625 32.46375 16.45265625 32.96875 31.09765625 C35.27875 31.42765625 37.58875 31.75765625 39.96875 32.09765625 C39.96875 32.42765625 39.96875 32.75765625 39.96875 33.09765625 C33.56413629 33.12311996 27.15953576 33.14057075 20.75488281 33.15258789 C18.57844556 33.15760049 16.40201164 33.16441228 14.22558594 33.1730957 C11.08788221 33.18529629 7.95022321 33.19091543 4.8125 33.1953125 C3.36514465 33.20305443 3.36514465 33.20305443 1.8885498 33.21095276 C0.96819946 33.21102829 0.04784912 33.21110382 -0.90039062 33.21118164 C-2.09952087 33.21451256 -2.09952087 33.21451256 -3.32287598 33.21791077 C-6.90828089 33.0587152 -10.47002683 32.54280915 -14.03125 32.09765625 C-14.03125 21.86765625 -14.03125 11.63765625 -14.03125 1.09765625 C-9.09487208 0.48060901 -4.86211652 -0.02642455 0 0 Z " fill="#079FE2" transform="translate(209.03125,6.90234375)"/>
<path d="M0 0 C8 0 8 0 9.82617188 1.28515625 C10.20322266 1.87167969 10.58027344 2.45820313 10.96875 3.0625 C11.39414063 3.69414062 11.81953125 4.32578125 12.2578125 4.9765625 C12.66773438 5.64429688 13.07765625 6.31203125 13.5 7 C13.94085938 7.66773438 14.38171875 8.33546875 14.8359375 9.0234375 C15.91548251 10.66622338 16.96121914 12.33113895 18 14 C18.33 9.38 18.66 4.76 19 0 C21.64 0 24.28 0 27 0 C27 9.57 27 19.14 27 29 C19 29 19 29 17.08203125 27.62304688 C16.66308594 26.99462891 16.24414062 26.36621094 15.8125 25.71875 C15.10673828 24.70361328 15.10673828 24.70361328 14.38671875 23.66796875 C13.92910156 22.95253906 13.47148437 22.23710937 13 21.5 C12.51144531 20.78457031 12.02289063 20.06914062 11.51953125 19.33203125 C10.32202274 17.57098933 9.15762634 15.78751127 8 14 C7.67 18.95 7.34 23.9 7 29 C4.69 29 2.38 29 0 29 C0 19.43 0 9.86 0 0 Z " fill="#F4FAFD" transform="translate(242,9)"/>
<path d="M0 0 C3.63 0 7.26 0 11 0 C18.48291572 19.96810934 18.48291572 19.96810934 21 29 C18.03 29 15.06 29 12 29 C11.67 28.01 11.34 27.02 11 26 C7.04 25.67 3.08 25.34 -1 25 C-1.33 26.32 -1.66 27.64 -2 29 C-4.64 29 -7.28 29 -10 29 C-9.13473737 25.21566454 -7.91494264 21.55363497 -6.6875 17.875 C-6.46747314 17.2142749 -6.24744629 16.5535498 -6.02075195 15.87280273 C-4.20930659 10.4959521 -2.17692665 5.24074935 0 0 Z " fill="#F2F9FC" transform="translate(149,9)"/>
<path d="M0 0 C0.99 0.33 1.98 0.66 3 1 C3 11.56 3 22.12 3 33 C59.43 33 115.86 33 174 33 C174 33.33 174 33.66 174 34 C151.48618041 34.23382923 128.97256166 34.41005453 106.45777321 34.51812172 C96.00317363 34.56963816 85.54932947 34.63984433 75.09521484 34.75439453 C65.98101104 34.85421496 56.86735441 34.91861678 47.75261915 34.94088495 C42.92818722 34.95389805 38.1053203 34.98437311 33.28139114 35.05730057 C28.73532405 35.12546688 24.19145762 35.1460603 19.64492798 35.13107681 C17.98162219 35.13381538 16.31823857 35.15354275 14.65537643 35.19205475 C2.13862022 35.46758685 2.13862022 35.46758685 -3.18248367 31.816082 C-5.70751769 29.33069943 -7.88340403 26.83645268 -10 24 C-10.50090338 23.39125345 -11.00180676 22.7825069 -11.51788902 22.15531349 C-13.00740805 20.20643382 -14.03184147 18.72598541 -13.921875 16.21875 C-12.52121291 12.84766497 -10.05195958 10.47517252 -7.5625 7.875 C-7.05912109 7.33746094 -6.55574219 6.79992187 -6.03710938 6.24609375 C-4.05395056 4.13388476 -2.04872079 2.04872079 0 0 Z " fill="#34B2E8" transform="translate(98,7)"/>
<path d="M0 0 C22.27835811 -0.02332669 44.55671422 -0.04097804 66.83508205 -0.05181217 C77.17855169 -0.05697562 87.52201374 -0.06401924 97.86547852 -0.07543945 C106.87741112 -0.08538481 115.88933824 -0.09185307 124.90127617 -0.09408849 C129.67611339 -0.09539586 134.45093493 -0.0984833 139.22576714 -0.10573006 C143.71459913 -0.11248793 148.20340889 -0.11461744 152.69224548 -0.11310768 C154.34469791 -0.11338411 155.99715103 -0.11539061 157.64959908 -0.11920547 C159.89573531 -0.1241391 162.14178621 -0.12299953 164.38792419 -0.12025452 C165.6480152 -0.12117631 166.90810621 -0.1220981 168.2063818 -0.12304783 C171 -0 171 -0 172 1 C172 13.21 172 25.42 172 38 C138.34 38 104.68 38 70 38 C70 37.67 70 37.34 70 37 C103 37 136 37 170 37 C170 25.45 170 13.9 170 2 C113.9 2 57.8 2 0 2 C0 1.34 0 0.68 0 0 Z " fill="#F6FBFD" transform="translate(102,4)"/>
<path d="M0 0 C19.47 0 38.94 0 59 0 C59 0.33 59 0.66 59 1 C54.545 1.495 54.545 1.495 50 2 C49.61328125 3.0621875 49.2265625 4.124375 48.828125 5.21875 C43.15727234 20.66529846 43.15727234 20.66529846 40 26 C39.01 26.33 38.02 26.66 37 27 C37 18.42 37 9.84 37 1 C33.37 1 29.74 1 26 1 C25.54625 2.711875 25.0925 4.42375 24.625 6.1875 C23.63721296 9.91415112 22.49480306 13.44496838 21 17 C20.34 17 19.68 17 19 17 C18.16280617 14.70967689 17.3301071 12.41789043 16.5 10.125 C16.26152344 9.47402344 16.02304688 8.82304687 15.77734375 8.15234375 C14 3.2265625 14 3.2265625 14 1 C10.37 1 6.74 1 3 1 C3 11.23 3 21.46 3 32 C5.64 32 8.28 32 11 32 C11 32.33 11 32.66 11 33 C7.7 33 4.4 33 1 33 C0.67 22.11 0.34 11.22 0 0 Z " fill="#049EE2" transform="translate(100,7)"/>
<path d="M0 0 C7.92 0 15.84 0 24 0 C24 2.64 24 5.28 24 8 C19.05 8 14.1 8 9 8 C9 9.65 9 11.3 9 13 C14.28 13 19.56 13 25 13 C25 15.64 25 18.28 25 21 C16.75 21 8.5 21 0 21 C0 14.07 0 7.14 0 0 Z " fill="#11A4E4" transform="translate(39,19)"/>
<path d="M0 0 C11.55 0 23.1 0 35 0 C35 0.33 35 0.66 35 1 C32.36 1 29.72 1 27 1 C27 11.23 27 21.46 27 32 C29.64 32 32.28 32 35 32 C35 32.33 35 32.66 35 33 C20.81 33 6.62 33 -8 33 C-8 32.67 -8 32.34 -8 32 C-3.38 32 1.24 32 6 32 C6 24.74 6 17.48 6 10 C4.02 10 2.04 10 0 10 C0 9.67 0 9.34 0 9 C2.31 9 4.62 9 7 9 C7 16.26 7 23.52 7 31 C9.97 31 12.94 31 16 31 C16 23.41 16 15.82 16 8 C18.64 8 21.28 8 24 8 C24 5.69 24 3.38 24 1 C16.08 1 8.16 1 0 1 C0 0.67 0 0.34 0 0 Z " fill="#019DE2" transform="translate(168,7)"/>
<path d="M0 0 C7.92 0 15.84 0 24 0 C24 1.98 24 3.96 24 6 C21.36 6 18.72 6 16 6 C16 13.59 16 21.18 16 29 C13.36 29 10.72 29 8 29 C8 21.41 8 13.82 8 6 C5.36 6 2.72 6 0 6 C0 4.02 0 2.04 0 0 Z " fill="#F0F9FC" transform="translate(168,9)"/>
<path d="M0 0 C6.6 0 13.2 0 20 0 C20 10.89 20 21.78 20 33 C16.349375 33.020625 12.69875 33.04125 8.9375 33.0625 C7.80046631 33.071604 6.66343262 33.08070801 5.49194336 33.09008789 C0.21509701 33.10446875 -4.80344891 32.9361163 -10 32 C-10 31.67 -10 31.34 -10 31 C-7.69 31 -5.38 31 -3 31 C-3 25.72 -3 20.44 -3 15 C1.28222057 19.28222057 3.87189176 22.79697439 6.86328125 27.890625 C9.45969202 30.88193879 9.45969202 30.88193879 17 31 C16.67 21.43 16.34 11.86 16 2 C10.72 1.67 5.44 1.34 0 1 C0 0.67 0 0.34 0 0 Z " fill="#0AA0E3" transform="translate(252,7)"/>
<path d="M0 0 C2.64 0 5.28 0 8 0 C8 9.9 8 19.8 8 30 C5.36 30 2.72 30 0 30 C0 20.1 0 10.2 0 0 Z " fill="#E6F5FB" transform="translate(195,8)"/>
<path d="M0 0 C0 9.9 0 19.8 0 30 C-8.16363636 23.0025974 -8.16363636 23.0025974 -11 19.875 C-11.8971875 18.91207031 -11.8971875 18.91207031 -12.8125 17.9296875 C-14 16 -14 16 -13.7421875 14.06787109 C-12.91938131 11.77538149 -12.0411128 10.68009425 -10.3125 8.984375 C-9.77882813 8.45585937 -9.24515625 7.92734375 -8.6953125 7.3828125 C-8.13585937 6.84398437 -7.57640625 6.30515625 -7 5.75 C-6.44054687 5.19570312 -5.88109375 4.64140625 -5.3046875 4.0703125 C-1.1541718 0 -1.1541718 0 0 0 Z " fill="#F4FAFD" transform="translate(100,9)"/>
<path d="M0 0 C4.22187244 0.66661144 5.87219326 1.21999768 8.5625 4.5625 C9.27243955 7.70816713 9.27805259 10.41753094 8.5625 13.5625 C6.0317885 16.61424034 4.41618774 17.38464839 0.5625 18.1875 C-2.4375 17.5625 -2.4375 17.5625 -5.3125 14.9375 C-7.63096562 11.25523108 -8.24896283 9.80013922 -7.4375 5.5625 C-5.34838357 1.71852577 -4.36166466 0.71372694 0 0 Z " fill="#0DA3E4" transform="translate(221.4375,14.4375)"/>
<path d="M0 0 C8.91 0 17.82 0 27 0 C27 2.64 27 5.28 27 8 C18.09 8 9.18 8 0 8 C0 5.36 0 2.72 0 0 Z " fill="#13A4E4" transform="translate(8,6)"/>
<path d="M0 0 C8.25 0 16.5 0 25 0 C25 2.64 25 5.28 25 8 C16.75 8 8.5 8 0 8 C0 5.36 0 2.72 0 0 Z " fill="#17A6E4" transform="translate(39,6)"/>
<path d="M0 0 C2.97 0 5.94 0 9 0 C9 6.93 9 13.86 9 21 C6.03 21 3.06 21 0 21 C0 14.07 0 7.14 0 0 Z " fill="#12A5E4" transform="translate(17,19)"/>
<path d="M0 0 C27.72 0 55.44 0 84 0 C84 2 84 2 82.42578125 3.5859375 C81.72839844 4.17632813 81.03101562 4.76671875 80.3125 5.375 C79.22388672 6.30119141 79.22388672 6.30119141 78.11328125 7.24609375 C75.76550888 9.19461463 73.40435225 11.1215998 71 13 C71 9.37 71 5.74 71 2 C47.57 1.67 24.14 1.34 0 1 C0 0.67 0 0.34 0 0 Z " fill="#E2F4FB" transform="translate(7,4)"/>
<path d="M0 0 C0.66 0 1.32 0 2 0 C0.17744436 4.68341571 -3.6369584 7.64871152 -7.27539062 10.93359375 C-8.96166399 12.48108289 -8.96166399 12.48108289 -11 15 C-10.93760307 18.13119118 -9.78051106 19.32923341 -8 22 C-8.66 22.66 -9.32 23.32 -10 24 C-14.01390821 18.64812239 -14.01390821 18.64812239 -13.9609375 16.1796875 C-12.49598141 12.85673831 -10.04264802 10.46544685 -7.5625 7.875 C-7.05912109 7.33746094 -6.55574219 6.79992187 -6.03710938 6.24609375 C-4.05395056 4.13388476 -2.04872079 2.04872079 0 0 Z " fill="#26A8E5" transform="translate(98,7)"/>
<path d="M0 0 C3.3 0 6.6 0 10 0 C10.33 3.3 10.66 6.6 11 10 C14.3 6.7 17.6 3.4 21 0 C21.66 0.33 22.32 0.66 23 1 C22.36191406 1.61488281 21.72382812 2.22976562 21.06640625 2.86328125 C20.24011719 3.67152344 19.41382812 4.47976562 18.5625 5.3125 C17.73878906 6.11300781 16.91507813 6.91351563 16.06640625 7.73828125 C13.80596523 9.90470808 13.80596523 9.90470808 13 13 C11.0625 12.625 11.0625 12.625 9 12 C7.73973202 9.47946405 8.08125555 8.1457902 8.4375 5.375 C8.53933594 4.55773437 8.64117187 3.74046875 8.74609375 2.8984375 C8.82988281 2.27195312 8.91367188 1.64546875 9 1 C6.36 1 3.72 1 1 1 C1 3.31 1 5.62 1 8 C0.67 8 0.34 8 0 8 C0 5.36 0 2.72 0 0 Z " fill="#3FB4E9" transform="translate(68,6)"/>
<path d="M0 0 C2.95183101 2.95183101 3.08663988 5.95511947 4 10 C1.69 10 -0.62 10 -3 10 C-2.69201674 8.51988629 -2.378482 7.04092675 -2.0625 5.5625 C-1.88847656 4.73878906 -1.71445313 3.91507813 -1.53515625 3.06640625 C-1 1 -1 1 0 0 Z " fill="#1CA7E5" transform="translate(154,17)"/>
<path d="M0 0 C2.95183101 2.95183101 3.08663988 5.95511947 4 10 C3.01 9.67 2.02 9.34 1 9 C1 11.97 1 14.94 1 18 C0.67 18 0.34 18 0 18 C0 12.06 0 6.12 0 0 Z " fill="#1EA8E5" transform="translate(111,20)"/>
<path d="M0 0 C0.33 0 0.66 0 1 0 C1 5.94 1 11.88 1 18 C0.67 18 0.34 18 0 18 C-0.33 14.7 -0.66 11.4 -1 8 C-1.99 8.495 -1.99 8.495 -3 9 C-2.01 6.03 -1.02 3.06 0 0 Z " fill="#2EADE7" transform="translate(128,20)"/>
<path d="M0 0 C3.82946843 1.45255699 5.12050295 3.42895561 7 7 C4 7 4 7 1.8125 5.1875 C0 3 0 3 0 0 Z " fill="#2EACE6" transform="translate(80,28)"/>
<path d="M0 0 C0.99 0 1.98 0 3 0 C2.34 1.98 1.68 3.96 1 6 C5.455 5.505 5.455 5.505 10 5 C10 5.66 10 6.32 10 7 C6.7 7 3.4 7 0 7 C-1.125 2.25 -1.125 2.25 0 0 Z " fill="#1FA9E5" transform="translate(138,32)"/>
</svg>
